<?xml version="1.0" encoding="UTF-8"?>
<svg xmlns="http://www.w3.org/2000/svg" xmlns:xlink="http://www.w3.org/1999/xlink" width="796.958mm" height="113.004mm" viewBox="-911.603210 47.495998 796.958008 113.003540">
    <circle transform="matrix(-1,0,0,1,-880.60321,100)" style="stroke:#f36926;stroke-width:0.05mm;fill:none" r="15" cx="0" cy="0"/>
    <rect transform="translate(-290.608398,130.5)" style="stroke:#000000;stroke-width:0.05mm;fill:none" x="-20.000004" y="-9.4995" width="40.000008" height="18.999001"/>
    <circle transform="translate(-370.608398,148.75)" style="stroke:#000000;stroke-width:0.05mm;fill:none" r="2.25" cx="0" cy="0"/>
    <circle transform="translate(-260.608398,148.75)" style="stroke:#000000;stroke-width:0.05mm;fill:none" r="2.25" cx="0" cy="0"/>
    <circle transform="translate(-370.608398,58.701996)" style="stroke:#000000;stroke-width:0.05mm;fill:none" r="2.25" cx="0" cy="0"/>
    <circle transform="translate(-260.608398,58.701996)" style="stroke:#000000;stroke-width:0.05mm;fill:none" r="2.25" cx="0" cy="0"/>
    <path transform="matrix(1,0,0,0.957627,-668.608398,-120.563995)" style="stroke:#000000;stroke-width:0.05mm;fill:none" d="M403.139648,175.500977L403.279541,175.503906L403.419189,175.508789L403.558838,175.515625L403.698242,175.524414L403.837646,175.535156L403.976807,175.547852L404.115723,175.5625L404.254395,175.579102L404.393066,175.597412L404.53125,175.61792L404.669189,175.640381L404.806885,175.664551L404.944092,175.690918L405.081055,175.718994L405.217529,175.749023L405.353516,175.781006L405.489014,175.814697L405.624268,175.850586L405.758789,175.888184L405.892822,175.92749L406.026367,175.968994L406.15918,176.012207L406.291504,176.057129L406.423096,176.104248L406.554199,176.152832L406.68457,176.203613L406.813965,176.255859L406.942871,176.310059L407.070801,176.366211L407.198242,176.423828L407.324463,176.483398L407.450195,176.544678L407.574951,176.60791L407.69873,176.672607L407.821533,176.739258L407.943604,176.807373L408.064453,176.877441L408.18457,176.948975L408.303467,177.022217L408.421387,177.097168L408.53833,177.173828L408.654297,177.251953L408.769043,177.331787L408.882568,177.41333L408.994873,177.496338L409.106201,177.580811L409.216309,177.666992L409.325195,177.754639L409.432861,177.84375L409.539063,177.934326L409.644287,178.026367L409.748047,178.120117L409.850586,178.215088L409.95166,178.311523L410.051514,178.409424L410.149902,178.508545L410.246826,178.609131L410.342529,178.711182L410.436523,178.814453L410.529297,178.918945L410.620605,179.024902L410.710205,179.13208L410.798584,179.240479L410.885254,179.349854L410.970459,179.460693L411.053955,179.572754L411.135986,179.685791L411.216553,179.800049L411.29541,179.915527L411.372559,180.031982L411.448242,180.149414L411.522217,180.268066L411.594482,180.387695L411.665039,180.508301L411.733887,180.629883L411.80127,180.752441L411.866699,180.875977L411.93042,181.000244L411.992432,181.125488L412.052734,181.251709L412.111084,181.378418L412.167969,181.506348L412.2229,181.634766L412.275879,181.76416L412.327148,181.894043L412.376709,182.024658L412.424316,182.156006L412.470215,182.288086L412.51416,182.420898L412.556152,182.553955L412.596436,182.687988L412.634766,182.822266L412.671387,182.957275L412.705811,183.092529L412.738525,183.228516L412.769287,183.364746L412.79834,183.501465L412.825195,183.638672L412.850342,183.776123L412.873535,183.914063L412.894531,184.052002L412.913818,184.19043L412.931152,184.329102L412.946533,184.468018L412.959961,184.607178L412.97168,184.746582L412.981201,184.885986L412.98877,185.025391L412.994385,185.165039L412.998047,185.304688L413,185.5L413,283.5L412.999023,283.639648L412.996094,283.779541L412.991211,283.919189L412.984375,284.058838L412.975586,284.198242L412.964844,284.337646L412.952148,284.476807L412.9375,284.615723L412.920898,284.754395L412.902588,284.893066L412.88208,285.03125L412.859619,285.169189L412.835449,285.306885L412.809082,285.444092L412.781006,285.581055L412.750977,285.717529L412.718994,285.853516L412.685303,285.989014L412.649414,286.124268L412.611816,286.258789L412.57251,286.392822L412.531006,286.526367L412.487793,286.65918L412.442871,286.791504L412.395752,286.923096L412.347168,287.054199L412.296387,287.18457L412.244141,287.313965L412.189941,287.442871L412.133789,287.570801L412.076172,287.698242L412.016602,287.824463L411.955322,287.950195L411.89209,288.074951L411.827393,288.19873L411.760742,288.321533L411.692627,288.443604L411.622559,288.564453L411.551025,288.68457L411.477783,288.803467L411.402832,288.921387L411.326172,289.03833L411.248047,289.154297L411.168213,289.269043L411.08667,289.382568L411.003662,289.494873L410.919189,289.606201L410.833008,289.716309L410.745361,289.825195L410.65625,289.932861L410.565674,290.039063L410.473633,290.144287L410.379883,290.248047L410.284912,290.350586L410.188477,290.45166L410.090576,290.551514L409.991455,290.649902L409.890869,290.746826L409.788818,290.842529L409.685547,290.936523L409.581055,291.029297L409.475098,291.120605L409.36792,291.210205L409.259521,291.298584L409.150146,291.385254L409.039307,291.470459L408.927246,291.553955L408.814209,291.635986L408.699951,291.716553L408.584473,291.79541L408.468018,291.872559L408.350586,291.948242L408.231934,292.022217L408.112305,292.094482L407.991699,292.165039L407.870117,292.233887L407.747559,292.30127L407.624023,292.366699L407.499756,292.43042L407.374512,292.492432L407.248291,292.552734L407.121582,292.611084L406.993652,292.667969L406.865234,292.7229L406.73584,292.775879L406.605957,292.827148L406.475342,292.876709L406.343994,292.924316L406.211914,292.970215L406.079102,293.01416L405.946045,293.056152L405.812012,293.096436L405.677734,293.134766L405.542725,293.171387L405.407471,293.205811L405.271484,293.238525L405.135254,293.269287L404.998535,293.29834L404.861328,293.325195L404.723877,293.350342L404.585938,293.373535L404.447998,293.394531L404.30957,293.413818L404.170898,293.431152L404.031982,293.446533L403.892822,293.459961L403.753418,293.47168L403.614014,293.481201L403.474609,293.48877L403.334961,293.494385L403.195313,293.498047L403,293.5L303,293.5L302.860352,293.499023L302.720459,293.496094L302.580811,293.491211L302.441162,293.484375L302.301758,293.475586L302.162354,293.464844L302.023193,293.452148L301.884277,293.4375L301.745605,293.420898L301.606934,293.402588L301.46875,293.38208L301.330811,293.359619L301.193115,293.335449L301.055908,293.309082L300.918945,293.281006L300.782471,293.250977L300.646484,293.218994L300.510986,293.185303L300.375732,293.149414L300.241211,293.111816L300.107178,293.07251L299.973633,293.031006L299.84082,292.987793L299.708496,292.942871L299.576904,292.895752L299.445801,292.847168L299.31543,292.796387L299.186035,292.744141L299.057129,292.689941L298.929199,292.633789L298.801758,292.576172L298.675537,292.516602L298.549805,292.455322L298.425049,292.39209L298.30127,292.327393L298.178467,292.260742L298.056396,292.192627L297.935547,292.122559L297.81543,292.051025L297.696533,291.977783L297.578613,291.902832L297.46167,291.826172L297.345703,291.748047L297.230957,291.668213L297.117432,291.58667L297.005127,291.503662L296.893799,291.419189L296.783691,291.333008L296.674805,291.245361L296.567139,291.15625L296.460938,291.065674L296.355713,290.973633L296.251953,290.879883L296.149414,290.784912L296.04834,290.688477L295.948486,290.590576L295.850098,290.491455L295.753174,290.390869L295.657471,290.288818L295.563477,290.185547L295.470703,290.081055L295.379395,289.975098L295.289795,289.86792L295.201416,289.759521L295.114746,289.650146L295.029541,289.539307L294.946045,289.427246L294.864014,289.314209L294.783447,289.199951L294.70459,289.084473L294.627441,288.968018L294.551758,288.850586L294.477783,288.731934L294.405518,288.612305L294.334961,288.491699L294.266113,288.370117L294.19873,288.247559L294.133301,288.124023L294.06958,287.999756L294.007568,287.874512L293.947266,287.748291L293.888916,287.621582L293.832031,287.493652L293.7771,287.365234L293.724121,287.23584L293.672852,287.105957L293.623291,286.975342L293.575684,286.843994L293.529785,286.711914L293.48584,286.579102L293.443848,286.446045L293.403564,286.312012L293.365234,286.177734L293.328613,286.042725L293.294189,285.907471L293.261475,285.771484L293.230713,285.635254L293.20166,285.498535L293.174805,285.361328L293.149658,285.223877L293.126465,285.085938L293.105469,284.947998L293.086182,284.80957L293.068848,284.670898L293.053467,284.531982L293.040039,284.392822L293.02832,284.253418L293.018799,284.114014L293.01123,283.974609L293.005615,283.834961L293.001953,283.695313L293,283.5L293,185.5L293.000977,185.360352L293.003906,185.220459L293.008789,185.080811L293.015625,184.941162L293.024414,184.801758L293.035156,184.662354L293.047852,184.523193L293.0625,184.384277L293.079102,184.245605L293.097412,184.106934L293.11792,183.96875L293.140381,183.830811L293.164551,183.693115L293.190918,183.555908L293.218994,183.418945L293.249023,183.282471L293.281006,183.146484L293.314697,183.010986L293.350586,182.875732L293.388184,182.741211L293.42749,182.607178L293.468994,182.473633L293.512207,182.34082L293.557129,182.208496L293.604248,182.076904L293.652832,181.945801L293.703613,181.81543L293.755859,181.686035L293.810059,181.557129L293.866211,181.429199L293.923828,181.301758L293.983398,181.175537L294.044678,181.049805L294.10791,180.925049L294.172607,180.80127L294.239258,180.678467L294.307373,180.556396L294.377441,180.435547L294.448975,180.31543L294.522217,180.196533L294.597168,180.078613L294.673828,179.96167L294.751953,179.845703L294.831787,179.730957L294.91333,179.617432L294.996338,179.505127L295.080811,179.393799L295.166992,179.283691L295.254639,179.174805L295.34375,179.067139L295.434326,178.960938L295.526367,178.855713L295.620117,178.751953L295.715088,178.649414L295.811523,178.54834L295.909424,178.448486L296.008545,178.350098L296.109131,178.253174L296.211182,178.157471L296.314453,178.063477L296.418945,177.970703L296.524902,177.879395L296.63208,177.789795L296.740479,177.701416L296.849854,177.614746L296.960693,177.529541L297.072754,177.446045L297.185791,177.364014L297.300049,177.283447L297.415527,177.20459L297.531982,177.127441L297.649414,177.051758L297.768066,176.977783L297.887695,176.905518L298.008301,176.834961L298.129883,176.766113L298.252441,176.69873L298.375977,176.633301L298.500244,176.56958L298.625488,176.507568L298.751709,176.447266L298.878418,176.388916L299.006348,176.332031L299.134766,176.2771L299.26416,176.224121L299.394043,176.172852L299.524658,176.123291L299.656006,176.075684L299.788086,176.029785L299.920898,175.98584L300.053955,175.943848L300.187988,175.903564L300.322266,175.865234L300.457275,175.828613L300.592529,175.794189L300.728516,175.761475L300.864746,175.730713L301.001465,175.70166L301.138672,175.674805L301.276123,175.649658L301.414063,175.626465L301.552002,175.605469L301.69043,175.586182L301.829102,175.568848L301.968018,175.553467L302.107178,175.540039L302.246582,175.52832L302.385986,175.518799L302.525391,175.51123L302.665039,175.505615L302.804688,175.501953L303,175.5L403,175.5L403.139648,175.500977z"/>
    <circle transform="translate(-667.608398,148.75)" style="stroke:#000000;stroke-width:0.05mm;fill:none" r="2.25" cx="0" cy="0"/>
    <path transform="translate(-993.608398,0)" style="stroke:#000000;stroke-width:0.05mm;fill:none" d="M293.752014,66.991997L309,66.991997L309,53L308.048004,53L308.048004,47.504002L321.279999,47.504002C325.687561,47.564629,329.52771,50.522087,330.712006,54.768002C330.890442,55.46101,330.987122,56.172504,331,56.888L331,151.192001C330.82428,155.228439,328.151855,158.728058,324.303986,159.960007C323.300232,160.296982,322.250641,160.477753,321.191986,160.496002L220.720001,160.496002C216.317734,160.432449,212.482742,157.479782,211.296005,153.240005C211.118515,152.5439,211.019226,151.830124,211,151.112L211,56.807999C211.191345,52.548512,214.148026,48.915989,218.279999,47.863998C219.167007,47.624439,220.081223,47.500725,221,47.495998L234,47.495998L234,53L229,53L229,61L221,61L221,99L258,99L258,47.495998L269.967987,47.495998L269.967987,53L266,53L266,99L282,99L282,108L216,108L216,146L317,146L317,126L277,126L277,120L317,120L317,74L306,74L306,82L289,82L289,65L284,65L284,47.504002L293.967987,47.504002L293.967987,53L293.768005,53L293.768005,65L293.752014,65L293.752014,66.991997z"/>
    <circle transform="translate(-667.608398,58.7005)" style="stroke:#000000;stroke-width:0.05mm;fill:none" r="2.25" cx="0" cy="0"/>
    <circle transform="translate(-777.608398,58.7005)" style="stroke:#000000;stroke-width:0.05mm;fill:none" r="2.25" cx="0" cy="0"/>
    <circle transform="translate(-777.608398,148.75)" style="stroke:#000000;stroke-width:0.05mm;fill:none" r="2.25" cx="0" cy="0"/>
    <circle transform="matrix(-1,0,0,1,-796.603149,148.75)" style="stroke:#000000;stroke-width:0.05mm;fill:none" r="2.25" cx="0" cy="0"/>
    <circle transform="matrix(-1,0,0,1,-796.603149,58.700001)" style="stroke:#000000;stroke-width:0.05mm;fill:none" r="2.25" cx="0" cy="0"/>
    <circle transform="matrix(-1,0,0,1,-906.60321,58.700001)" style="stroke:#000000;stroke-width:0.05mm;fill:none" r="2.25" cx="0" cy="0"/>
    <circle transform="matrix(-1,0,0,1,-880.60321,100)" style="stroke:#000000;stroke-width:0.05mm;fill:none" r="15.999992" cx="0" cy="0"/>
    <path transform="matrix(-1,0,0,0.957627,-498.60321,-120.564003)" style="stroke:#000000;stroke-width:0.05mm;fill:none" d="M403.139648,175.500977L403.279541,175.503906L403.419189,175.508789L403.558838,175.515625L403.698242,175.524414L403.837646,175.535156L403.976807,175.547852L404.115723,175.5625L404.254395,175.579102L404.393066,175.597412L404.53125,175.61792L404.669189,175.640381L404.806885,175.664551L404.944092,175.690918L405.081055,175.718994L405.217529,175.749023L405.353516,175.781006L405.489014,175.814697L405.624268,175.850586L405.758789,175.888184L405.892822,175.92749L406.026367,175.968994L406.15918,176.012207L406.291504,176.057129L406.423096,176.104248L406.554199,176.152832L406.68457,176.203613L406.813965,176.255859L406.942871,176.310059L407.070801,176.366211L407.198242,176.423828L407.324463,176.483398L407.450195,176.544678L407.574951,176.60791L407.69873,176.672607L407.821533,176.739258L407.943604,176.807373L408.064453,176.877441L408.18457,176.948975L408.303467,177.022217L408.421387,177.097168L408.53833,177.173828L408.654297,177.251953L408.769043,177.331787L408.882568,177.41333L408.994873,177.496338L409.106201,177.580811L409.216309,177.666992L409.325195,177.754639L409.432861,177.84375L409.539063,177.934326L409.644287,178.026367L409.748047,178.120117L409.850586,178.215088L409.95166,178.311523L410.051514,178.409424L410.149902,178.508545L410.246826,178.609131L410.342529,178.711182L410.436523,178.814453L410.529297,178.918945L410.620605,179.024902L410.710205,179.13208L410.798584,179.240479L410.885254,179.349854L410.970459,179.460693L411.053955,179.572754L411.135986,179.685791L411.216553,179.800049L411.29541,179.915527L411.372559,180.031982L411.448242,180.149414L411.522217,180.268066L411.594482,180.387695L411.665039,180.508301L411.733887,180.629883L411.80127,180.752441L411.866699,180.875977L411.93042,181.000244L411.992432,181.125488L412.052734,181.251709L412.111084,181.378418L412.167969,181.506348L412.2229,181.634766L412.275879,181.76416L412.327148,181.894043L412.376709,182.024658L412.424316,182.156006L412.470215,182.288086L412.51416,182.420898L412.556152,182.553955L412.596436,182.687988L412.634766,182.822266L412.671387,182.957275L412.705811,183.092529L412.738525,183.228516L412.769287,183.364746L412.79834,183.501465L412.825195,183.638672L412.850342,183.776123L412.873535,183.914063L412.894531,184.052002L412.913818,184.19043L412.931152,184.329102L412.946533,184.468018L412.959961,184.607178L412.97168,184.746582L412.981201,184.885986L412.98877,185.025391L412.994385,185.165039L412.998047,185.304688L413,185.5L413,283.5L412.999023,283.639648L412.996094,283.779541L412.991211,283.919189L412.984375,284.058838L412.975586,284.198242L412.964844,284.337646L412.952148,284.476807L412.9375,284.615723L412.920898,284.754395L412.902588,284.893066L412.88208,285.03125L412.859619,285.169189L412.835449,285.306885L412.809082,285.444092L412.781006,285.581055L412.750977,285.717529L412.718994,285.853516L412.685303,285.989014L412.649414,286.124268L412.611816,286.258789L412.57251,286.392822L412.531006,286.526367L412.487793,286.65918L412.442871,286.791504L412.395752,286.923096L412.347168,287.054199L412.296387,287.18457L412.244141,287.313965L412.189941,287.442871L412.133789,287.570801L412.076172,287.698242L412.016602,287.824463L411.955322,287.950195L411.89209,288.074951L411.827393,288.19873L411.760742,288.321533L411.692627,288.443604L411.622559,288.564453L411.551025,288.68457L411.477783,288.803467L411.402832,288.921387L411.326172,289.03833L411.248047,289.154297L411.168213,289.269043L411.08667,289.382568L411.003662,289.494873L410.919189,289.606201L410.833008,289.716309L410.745361,289.825195L410.65625,289.932861L410.565674,290.039063L410.473633,290.144287L410.379883,290.248047L410.284912,290.350586L410.188477,290.45166L410.090576,290.551514L409.991455,290.649902L409.890869,290.746826L409.788818,290.842529L409.685547,290.936523L409.581055,291.029297L409.475098,291.120605L409.36792,291.210205L409.259521,291.298584L409.150146,291.385254L409.039307,291.470459L408.927246,291.553955L408.814209,291.635986L408.699951,291.716553L408.584473,291.79541L408.468018,291.872559L408.350586,291.948242L408.231934,292.022217L408.112305,292.094482L407.991699,292.165039L407.870117,292.233887L407.747559,292.30127L407.624023,292.366699L407.499756,292.43042L407.374512,292.492432L407.248291,292.552734L407.121582,292.611084L406.993652,292.667969L406.865234,292.7229L406.73584,292.775879L406.605957,292.827148L406.475342,292.876709L406.343994,292.924316L406.211914,292.970215L406.079102,293.01416L405.946045,293.056152L405.812012,293.096436L405.677734,293.134766L405.542725,293.171387L405.407471,293.205811L405.271484,293.238525L405.135254,293.269287L404.998535,293.29834L404.861328,293.325195L404.723877,293.350342L404.585938,293.373535L404.447998,293.394531L404.30957,293.413818L404.170898,293.431152L404.031982,293.446533L403.892822,293.459961L403.753418,293.47168L403.614014,293.481201L403.474609,293.48877L403.334961,293.494385L403.195313,293.498047L403,293.5L303,293.5L302.860352,293.499023L302.720459,293.496094L302.580811,293.491211L302.441162,293.484375L302.301758,293.475586L302.162354,293.464844L302.023193,293.452148L301.884277,293.4375L301.745605,293.420898L301.606934,293.402588L301.46875,293.38208L301.330811,293.359619L301.193115,293.335449L301.055908,293.309082L300.918945,293.281006L300.782471,293.250977L300.646484,293.218994L300.510986,293.185303L300.375732,293.149414L300.241211,293.111816L300.107178,293.07251L299.973633,293.031006L299.84082,292.987793L299.708496,292.942871L299.576904,292.895752L299.445801,292.847168L299.31543,292.796387L299.186035,292.744141L299.057129,292.689941L298.929199,292.633789L298.801758,292.576172L298.675537,292.516602L298.549805,292.455322L298.425049,292.39209L298.30127,292.327393L298.178467,292.260742L298.056396,292.192627L297.935547,292.122559L297.81543,292.051025L297.696533,291.977783L297.578613,291.902832L297.46167,291.826172L297.345703,291.748047L297.230957,291.668213L297.117432,291.58667L297.005127,291.503662L296.893799,291.419189L296.783691,291.333008L296.674805,291.245361L296.567139,291.15625L296.460938,291.065674L296.355713,290.973633L296.251953,290.879883L296.149414,290.784912L296.04834,290.688477L295.948486,290.590576L295.850098,290.491455L295.753174,290.390869L295.657471,290.288818L295.563477,290.185547L295.470703,290.081055L295.379395,289.975098L295.289795,289.86792L295.201416,289.759521L295.114746,289.650146L295.029541,289.539307L294.946045,289.427246L294.864014,289.314209L294.783447,289.199951L294.70459,289.084473L294.627441,288.968018L294.551758,288.850586L294.477783,288.731934L294.405518,288.612305L294.334961,288.491699L294.266113,288.370117L294.19873,288.247559L294.133301,288.124023L294.06958,287.999756L294.007568,287.874512L293.947266,287.748291L293.888916,287.621582L293.832031,287.493652L293.7771,287.365234L293.724121,287.23584L293.672852,287.105957L293.623291,286.975342L293.575684,286.843994L293.529785,286.711914L293.48584,286.579102L293.443848,286.446045L293.403564,286.312012L293.365234,286.177734L293.328613,286.042725L293.294189,285.907471L293.261475,285.771484L293.230713,285.635254L293.20166,285.498535L293.174805,285.361328L293.149658,285.223877L293.126465,285.085938L293.105469,284.947998L293.086182,284.80957L293.068848,284.670898L293.053467,284.531982L293.040039,284.392822L293.02832,284.253418L293.018799,284.114014L293.01123,283.974609L293.005615,283.834961L293.001953,283.695313L293,283.5L293,185.5L293.000977,185.360352L293.003906,185.220459L293.008789,185.080811L293.015625,184.941162L293.024414,184.801758L293.035156,184.662354L293.047852,184.523193L293.0625,184.384277L293.079102,184.245605L293.097412,184.106934L293.11792,183.96875L293.140381,183.830811L293.164551,183.693115L293.190918,183.555908L293.218994,183.418945L293.249023,183.282471L293.281006,183.146484L293.314697,183.010986L293.350586,182.875732L293.388184,182.741211L293.42749,182.607178L293.468994,182.473633L293.512207,182.34082L293.557129,182.208496L293.604248,182.076904L293.652832,181.945801L293.703613,181.81543L293.755859,181.686035L293.810059,181.557129L293.866211,181.429199L293.923828,181.301758L293.983398,181.175537L294.044678,181.049805L294.10791,180.925049L294.172607,180.80127L294.239258,180.678467L294.307373,180.556396L294.377441,180.435547L294.448975,180.31543L294.522217,180.196533L294.597168,180.078613L294.673828,179.96167L294.751953,179.845703L294.831787,179.730957L294.91333,179.617432L294.996338,179.505127L295.080811,179.393799L295.166992,179.283691L295.254639,179.174805L295.34375,179.067139L295.434326,178.960938L295.526367,178.855713L295.620117,178.751953L295.715088,178.649414L295.811523,178.54834L295.909424,178.448486L296.008545,178.350098L296.109131,178.253174L296.211182,178.157471L296.314453,178.063477L296.418945,177.970703L296.524902,177.879395L296.63208,177.789795L296.740479,177.701416L296.849854,177.614746L296.960693,177.529541L297.072754,177.446045L297.185791,177.364014L297.300049,177.283447L297.415527,177.20459L297.531982,177.127441L297.649414,177.051758L297.768066,176.977783L297.887695,176.905518L298.008301,176.834961L298.129883,176.766113L298.252441,176.69873L298.375977,176.633301L298.500244,176.56958L298.625488,176.507568L298.751709,176.447266L298.878418,176.388916L299.006348,176.332031L299.134766,176.2771L299.26416,176.224121L299.394043,176.172852L299.524658,176.123291L299.656006,176.075684L299.788086,176.029785L299.920898,175.98584L300.053955,175.943848L300.187988,175.903564L300.322266,175.865234L300.457275,175.828613L300.592529,175.794189L300.728516,175.761475L300.864746,175.730713L301.001465,175.70166L301.138672,175.674805L301.276123,175.649658L301.414063,175.626465L301.552002,175.605469L301.69043,175.586182L301.829102,175.568848L301.968018,175.553467L302.107178,175.540039L302.246582,175.52832L302.385986,175.518799L302.525391,175.51123L302.665039,175.505615L302.804688,175.501953L303,175.5L403,175.5L403.139648,175.500977z"/>
    <circle transform="matrix(-1,0,0,1,-906.60321,148.75)" style="stroke:#000000;stroke-width:0.05mm;fill:none" r="2.25" cx="0" cy="0"/>
    <circle transform="translate(-527.608398,148.75)" style="stroke:#000000;stroke-width:0.05mm;fill:none" r="2.25" cx="0" cy="0"/>
    <path transform="matrix(1,0,0,0.957627,-935.608398,-120.564003)" style="stroke:#000000;stroke-width:0.05mm;fill:none" d="M403.139648,175.500977L403.279541,175.503906L403.419189,175.508789L403.558838,175.515625L403.698242,175.524414L403.837646,175.535156L403.976807,175.547852L404.115723,175.5625L404.254395,175.579102L404.393066,175.597412L404.53125,175.61792L404.669189,175.640381L404.806885,175.664551L404.944092,175.690918L405.081055,175.718994L405.217529,175.749023L405.353516,175.781006L405.489014,175.814697L405.624268,175.850586L405.758789,175.888184L405.892822,175.92749L406.026367,175.968994L406.15918,176.012207L406.291504,176.057129L406.423096,176.104248L406.554199,176.152832L406.68457,176.203613L406.813965,176.255859L406.942871,176.310059L407.070801,176.366211L407.198242,176.423828L407.324463,176.483398L407.450195,176.544678L407.574951,176.60791L407.69873,176.672607L407.821533,176.739258L407.943604,176.807373L408.064453,176.877441L408.18457,176.948975L408.303467,177.022217L408.421387,177.097168L408.53833,177.173828L408.654297,177.251953L408.769043,177.331787L408.882568,177.41333L408.994873,177.496338L409.106201,177.580811L409.216309,177.666992L409.325195,177.754639L409.432861,177.84375L409.539063,177.934326L409.644287,178.026367L409.748047,178.120117L409.850586,178.215088L409.95166,178.311523L410.051514,178.409424L410.149902,178.508545L410.246826,178.609131L410.342529,178.711182L410.436523,178.814453L410.529297,178.918945L410.620605,179.024902L410.710205,179.13208L410.798584,179.240479L410.885254,179.349854L410.970459,179.460693L411.053955,179.572754L411.135986,179.685791L411.216553,179.800049L411.29541,179.915527L411.372559,180.031982L411.448242,180.149414L411.522217,180.268066L411.594482,180.387695L411.665039,180.508301L411.733887,180.629883L411.80127,180.752441L411.866699,180.875977L411.93042,181.000244L411.992432,181.125488L412.052734,181.251709L412.111084,181.378418L412.167969,181.506348L412.2229,181.634766L412.275879,181.76416L412.327148,181.894043L412.376709,182.024658L412.424316,182.156006L412.470215,182.288086L412.51416,182.420898L412.556152,182.553955L412.596436,182.687988L412.634766,182.822266L412.671387,182.957275L412.705811,183.092529L412.738525,183.228516L412.769287,183.364746L412.79834,183.501465L412.825195,183.638672L412.850342,183.776123L412.873535,183.914063L412.894531,184.052002L412.913818,184.19043L412.931152,184.329102L412.946533,184.468018L412.959961,184.607178L412.97168,184.746582L412.981201,184.885986L412.98877,185.025391L412.994385,185.165039L412.998047,185.304688L413,185.5L413,283.5L412.999023,283.639648L412.996094,283.779541L412.991211,283.919189L412.984375,284.058838L412.975586,284.198242L412.964844,284.337646L412.952148,284.476807L412.9375,284.615723L412.920898,284.754395L412.902588,284.893066L412.88208,285.03125L412.859619,285.169189L412.835449,285.306885L412.809082,285.444092L412.781006,285.581055L412.750977,285.717529L412.718994,285.853516L412.685303,285.989014L412.649414,286.124268L412.611816,286.258789L412.57251,286.392822L412.531006,286.526367L412.487793,286.65918L412.442871,286.791504L412.395752,286.923096L412.347168,287.054199L412.296387,287.18457L412.244141,287.313965L412.189941,287.442871L412.133789,287.570801L412.076172,287.698242L412.016602,287.824463L411.955322,287.950195L411.89209,288.074951L411.827393,288.19873L411.760742,288.321533L411.692627,288.443604L411.622559,288.564453L411.551025,288.68457L411.477783,288.803467L411.402832,288.921387L411.326172,289.03833L411.248047,289.154297L411.168213,289.269043L411.08667,289.382568L411.003662,289.494873L410.919189,289.606201L410.833008,289.716309L410.745361,289.825195L410.65625,289.932861L410.565674,290.039063L410.473633,290.144287L410.379883,290.248047L410.284912,290.350586L410.188477,290.45166L410.090576,290.551514L409.991455,290.649902L409.890869,290.746826L409.788818,290.842529L409.685547,290.936523L409.581055,291.029297L409.475098,291.120605L409.36792,291.210205L409.259521,291.298584L409.150146,291.385254L409.039307,291.470459L408.927246,291.553955L408.814209,291.635986L408.699951,291.716553L408.584473,291.79541L408.468018,291.872559L408.350586,291.948242L408.231934,292.022217L408.112305,292.094482L407.991699,292.165039L407.870117,292.233887L407.747559,292.30127L407.624023,292.366699L407.499756,292.43042L407.374512,292.492432L407.248291,292.552734L407.121582,292.611084L406.993652,292.667969L406.865234,292.7229L406.73584,292.775879L406.605957,292.827148L406.475342,292.876709L406.343994,292.924316L406.211914,292.970215L406.079102,293.01416L405.946045,293.056152L405.812012,293.096436L405.677734,293.134766L405.542725,293.171387L405.407471,293.205811L405.271484,293.238525L405.135254,293.269287L404.998535,293.29834L404.861328,293.325195L404.723877,293.350342L404.585938,293.373535L404.447998,293.394531L404.30957,293.413818L404.170898,293.431152L404.031982,293.446533L403.892822,293.459961L403.753418,293.47168L403.614014,293.481201L403.474609,293.48877L403.334961,293.494385L403.195313,293.498047L403,293.5L303,293.5L302.860352,293.499023L302.720459,293.496094L302.580811,293.491211L302.441162,293.484375L302.301758,293.475586L302.162354,293.464844L302.023193,293.452148L301.884277,293.4375L301.745605,293.420898L301.606934,293.402588L301.46875,293.38208L301.330811,293.359619L301.193115,293.335449L301.055908,293.309082L300.918945,293.281006L300.782471,293.250977L300.646484,293.218994L300.510986,293.185303L300.375732,293.149414L300.241211,293.111816L300.107178,293.07251L299.973633,293.031006L299.84082,292.987793L299.708496,292.942871L299.576904,292.895752L299.445801,292.847168L299.31543,292.796387L299.186035,292.744141L299.057129,292.689941L298.929199,292.633789L298.801758,292.576172L298.675537,292.516602L298.549805,292.455322L298.425049,292.39209L298.30127,292.327393L298.178467,292.260742L298.056396,292.192627L297.935547,292.122559L297.81543,292.051025L297.696533,291.977783L297.578613,291.902832L297.46167,291.826172L297.345703,291.748047L297.230957,291.668213L297.117432,291.58667L297.005127,291.503662L296.893799,291.419189L296.783691,291.333008L296.674805,291.245361L296.567139,291.15625L296.460938,291.065674L296.355713,290.973633L296.251953,290.879883L296.149414,290.784912L296.04834,290.688477L295.948486,290.590576L295.850098,290.491455L295.753174,290.390869L295.657471,290.288818L295.563477,290.185547L295.470703,290.081055L295.379395,289.975098L295.289795,289.86792L295.201416,289.759521L295.114746,289.650146L295.029541,289.539307L294.946045,289.427246L294.864014,289.314209L294.783447,289.199951L294.70459,289.084473L294.627441,288.968018L294.551758,288.850586L294.477783,288.731934L294.405518,288.612305L294.334961,288.491699L294.266113,288.370117L294.19873,288.247559L294.133301,288.124023L294.06958,287.999756L294.007568,287.874512L293.947266,287.748291L293.888916,287.621582L293.832031,287.493652L293.7771,287.365234L293.724121,287.23584L293.672852,287.105957L293.623291,286.975342L293.575684,286.843994L293.529785,286.711914L293.48584,286.579102L293.443848,286.446045L293.403564,286.312012L293.365234,286.177734L293.328613,286.042725L293.294189,285.907471L293.261475,285.771484L293.230713,285.635254L293.20166,285.498535L293.174805,285.361328L293.149658,285.223877L293.126465,285.085938L293.105469,284.947998L293.086182,284.80957L293.068848,284.670898L293.053467,284.531982L293.040039,284.392822L293.02832,284.253418L293.018799,284.114014L293.01123,283.974609L293.005615,283.834961L293.001953,283.695313L293,283.5L293,185.5L293.000977,185.360352L293.003906,185.220459L293.008789,185.080811L293.015625,184.941162L293.024414,184.801758L293.035156,184.662354L293.047852,184.523193L293.0625,184.384277L293.079102,184.245605L293.097412,184.106934L293.11792,183.96875L293.140381,183.830811L293.164551,183.693115L293.190918,183.555908L293.218994,183.418945L293.249023,183.282471L293.281006,183.146484L293.314697,183.010986L293.350586,182.875732L293.388184,182.741211L293.42749,182.607178L293.468994,182.473633L293.512207,182.34082L293.557129,182.208496L293.604248,182.076904L293.652832,181.945801L293.703613,181.81543L293.755859,181.686035L293.810059,181.557129L293.866211,181.429199L293.923828,181.301758L293.983398,181.175537L294.044678,181.049805L294.10791,180.925049L294.172607,180.80127L294.239258,180.678467L294.307373,180.556396L294.377441,180.435547L294.448975,180.31543L294.522217,180.196533L294.597168,180.078613L294.673828,179.96167L294.751953,179.845703L294.831787,179.730957L294.91333,179.617432L294.996338,179.505127L295.080811,179.393799L295.166992,179.283691L295.254639,179.174805L295.34375,179.067139L295.434326,178.960938L295.526367,178.855713L295.620117,178.751953L295.715088,178.649414L295.811523,178.54834L295.909424,178.448486L296.008545,178.350098L296.109131,178.253174L296.211182,178.157471L296.314453,178.063477L296.418945,177.970703L296.524902,177.879395L296.63208,177.789795L296.740479,177.701416L296.849854,177.614746L296.960693,177.529541L297.072754,177.446045L297.185791,177.364014L297.300049,177.283447L297.415527,177.20459L297.531982,177.127441L297.649414,177.051758L297.768066,176.977783L297.887695,176.905518L298.008301,176.834961L298.129883,176.766113L298.252441,176.69873L298.375977,176.633301L298.500244,176.56958L298.625488,176.507568L298.751709,176.447266L298.878418,176.388916L299.006348,176.332031L299.134766,176.2771L299.26416,176.224121L299.394043,176.172852L299.524658,176.123291L299.656006,176.075684L299.788086,176.029785L299.920898,175.98584L300.053955,175.943848L300.187988,175.903564L300.322266,175.865234L300.457275,175.828613L300.592529,175.794189L300.728516,175.761475L300.864746,175.730713L301.001465,175.70166L301.138672,175.674805L301.276123,175.649658L301.414063,175.626465L301.552002,175.605469L301.69043,175.586182L301.829102,175.568848L301.968018,175.553467L302.107178,175.540039L302.246582,175.52832L302.385986,175.518799L302.525391,175.51123L302.665039,175.505615L302.804688,175.501953L303,175.5L403,175.5L403.139648,175.500977z"/>
    <circle transform="translate(-527.608398,58.701)" style="stroke:#000000;stroke-width:0.05mm;fill:none" r="2.25" cx="0" cy="0"/>
    <rect transform="translate(-582.608398,102)" style="stroke:#000000;stroke-width:0.05mm;fill:none" x="-50" y="-49" width="100" height="98"/>
    <circle transform="translate(-637.608398,148.75)" style="stroke:#000000;stroke-width:0.05mm;fill:none" r="2.25" cx="0" cy="0"/>
    <circle transform="translate(-637.608398,58.701)" style="stroke:#000000;stroke-width:0.05mm;fill:none" r="2.25" cx="0" cy="0"/>
    <path transform="translate(-993.608398,0)" style="stroke:#000000;stroke-width:0.05mm;fill:none" d="M599.135986,47.504002C602.977295,47.515087,606.473083,49.721321,608.135986,53.183998C608.675537,54.346107,608.969666,55.607109,609,56.888L609,151.192001C608.843933,154.918594,606.545532,158.217987,603.104004,159.656006C601.866028,160.184845,600.537964,160.46991,599.192017,160.496002L498.720001,160.496002C494.931244,160.430054,491.504028,158.23204,489.864014,154.815994C489.324585,153.653854,489.030518,152.392883,489,151.112L489,56.807999C489.155457,53.072113,491.465363,49.766514,494.920013,48.335999C496.209869,47.784946,497.597382,47.499264,499,47.495998L599.135986,47.504002z"/>
    <path transform="translate(-993.608398,0)" style="stroke:#000000;stroke-width:0.05mm;fill:none" d="M493.768005,146.511993L493.544006,146.544006C492.415131,146.778549,491.645905,147.828659,491.76001,148.975998C491.890472,150.212845,492.99408,151.111786,494.231995,150.992004C495.378448,150.871643,496.248627,149.904739,496.247986,148.751999C496.25354,147.597504,495.380707,146.62767,494.231995,146.511993C494.077515,146.501572,493.922485,146.501602,493.768005,146.511993z"/>
    <path transform="translate(-993.608398,0)" style="stroke:#000000;stroke-width:0.05mm;fill:none" d="M603.768005,146.511993L603.544006,146.544006C602.415405,146.779556,601.645325,147.828781,601.76001,148.975998C601.891174,150.212601,602.994263,151.111786,604.231995,150.992004C605.378723,150.872467,606.249451,149.904968,606.247986,148.751999C606.254089,147.597321,605.380981,146.626923,604.231995,146.511993C604.077576,146.50029,603.922424,146.500351,603.768005,146.511993z"/>
    <path transform="translate(-993.608398,0)" style="stroke:#000000;stroke-width:0.05mm;fill:none" d="M596,146L596,53L499,53L499,146L596,146z"/>
    <path transform="translate(-993.608398,0)" style="stroke:#000000;stroke-width:0.05mm;fill:none" d="M493.768005,56.464001L493.544006,56.495998C492.414337,56.730473,491.644379,57.780067,491.76001,58.928001C491.880463,60.082329,492.855408,60.95694,494.015991,60.952C495.171661,60.945805,496.134247,60.062847,496.23999,58.911999C496.29599,58.320244,496.115967,57.730034,495.738129,57.271202C495.36026,56.81237,494.815521,56.522545,494.223999,56.464001C494.072754,56.44231,493.919189,56.442055,493.768005,56.464001z"/>
    <path transform="translate(-993.608398,0)" style="stroke:#000000;stroke-width:0.05mm;fill:none" d="M603.768005,56.464001L603.544006,56.495998C602.414551,56.731121,601.644409,57.780163,601.76001,58.928001C601.876343,60.084026,602.854187,60.961308,604.015991,60.952C604.611084,60.948727,605.180847,60.709702,605.599304,60.286579C606.017761,59.863457,606.250427,59.291092,606.247986,58.695999C606.244934,57.455727,605.240295,56.450882,604,56.448002L603.768005,56.464001z"/>
    <rect transform="translate(-315.608398,81.932976)" style="stroke:#000000;stroke-width:0.05mm;fill:none" x="-50" y="-28.932976" width="100" height="57.865952"/>
    <path transform="matrix(1,0,0,0.957627,-527.645203,-120.563995)" style="stroke:#000000;stroke-width:0.05mm;fill:none" d="M403.139648,175.500977L403.279541,175.503906L403.419189,175.508789L403.558838,175.515625L403.698242,175.524414L403.837646,175.535156L403.976807,175.547852L404.115723,175.5625L404.254395,175.579102L404.393066,175.597412L404.53125,175.61792L404.669189,175.640381L404.806885,175.664551L404.944092,175.690918L405.081055,175.718994L405.217529,175.749023L405.353516,175.781006L405.489014,175.814697L405.624268,175.850586L405.758789,175.888184L405.892822,175.92749L406.026367,175.968994L406.15918,176.012207L406.291504,176.057129L406.423096,176.104248L406.554199,176.152832L406.68457,176.203613L406.813965,176.255859L406.942871,176.310059L407.070801,176.366211L407.198242,176.423828L407.324463,176.483398L407.450195,176.544678L407.574951,176.60791L407.69873,176.672607L407.821533,176.739258L407.943604,176.807373L408.064453,176.877441L408.18457,176.948975L408.303467,177.022217L408.421387,177.097168L408.53833,177.173828L408.654297,177.251953L408.769043,177.331787L408.882568,177.41333L408.994873,177.496338L409.106201,177.580811L409.216309,177.666992L409.325195,177.754639L409.432861,177.84375L409.539063,177.934326L409.644287,178.026367L409.748047,178.120117L409.850586,178.215088L409.95166,178.311523L410.051514,178.409424L410.149902,178.508545L410.246826,178.609131L410.342529,178.711182L410.436523,178.814453L410.529297,178.918945L410.620605,179.024902L410.710205,179.13208L410.798584,179.240479L410.885254,179.349854L410.970459,179.460693L411.053955,179.572754L411.135986,179.685791L411.216553,179.800049L411.29541,179.915527L411.372559,180.031982L411.448242,180.149414L411.522217,180.268066L411.594482,180.387695L411.665039,180.508301L411.733887,180.629883L411.80127,180.752441L411.866699,180.875977L411.93042,181.000244L411.992432,181.125488L412.052734,181.251709L412.111084,181.378418L412.167969,181.506348L412.2229,181.634766L412.275879,181.76416L412.327148,181.894043L412.376709,182.024658L412.424316,182.156006L412.470215,182.288086L412.51416,182.420898L412.556152,182.553955L412.596436,182.687988L412.634766,182.822266L412.671387,182.957275L412.705811,183.092529L412.738525,183.228516L412.769287,183.364746L412.79834,183.501465L412.825195,183.638672L412.850342,183.776123L412.873535,183.914063L412.894531,184.052002L412.913818,184.19043L412.931152,184.329102L412.946533,184.468018L412.959961,184.607178L412.97168,184.746582L412.981201,184.885986L412.98877,185.025391L412.994385,185.165039L412.998047,185.304688L413,185.5L413,283.5L412.999023,283.639648L412.996094,283.779541L412.991211,283.919189L412.984375,284.058838L412.975586,284.198242L412.964844,284.337646L412.952148,284.476807L412.9375,284.615723L412.920898,284.754395L412.902588,284.893066L412.88208,285.03125L412.859619,285.169189L412.835449,285.306885L412.809082,285.444092L412.781006,285.581055L412.750977,285.717529L412.718994,285.853516L412.685303,285.989014L412.649414,286.124268L412.611816,286.258789L412.57251,286.392822L412.531006,286.526367L412.487793,286.65918L412.442871,286.791504L412.395752,286.923096L412.347168,287.054199L412.296387,287.18457L412.244141,287.313965L412.189941,287.442871L412.133789,287.570801L412.076172,287.698242L412.016602,287.824463L411.955322,287.950195L411.89209,288.074951L411.827393,288.19873L411.760742,288.321533L411.692627,288.443604L411.622559,288.564453L411.551025,288.68457L411.477783,288.803467L411.402832,288.921387L411.326172,289.03833L411.248047,289.154297L411.168213,289.269043L411.08667,289.382568L411.003662,289.494873L410.919189,289.606201L410.833008,289.716309L410.745361,289.825195L410.65625,289.932861L410.565674,290.039063L410.473633,290.144287L410.379883,290.248047L410.284912,290.350586L410.188477,290.45166L410.090576,290.551514L409.991455,290.649902L409.890869,290.746826L409.788818,290.842529L409.685547,290.936523L409.581055,291.029297L409.475098,291.120605L409.36792,291.210205L409.259521,291.298584L409.150146,291.385254L409.039307,291.470459L408.927246,291.553955L408.814209,291.635986L408.699951,291.716553L408.584473,291.79541L408.468018,291.872559L408.350586,291.948242L408.231934,292.022217L408.112305,292.094482L407.991699,292.165039L407.870117,292.233887L407.747559,292.30127L407.624023,292.366699L407.499756,292.43042L407.374512,292.492432L407.248291,292.552734L407.121582,292.611084L406.993652,292.667969L406.865234,292.7229L406.73584,292.775879L406.605957,292.827148L406.475342,292.876709L406.343994,292.924316L406.211914,292.970215L406.079102,293.01416L405.946045,293.056152L405.812012,293.096436L405.677734,293.134766L405.542725,293.171387L405.407471,293.205811L405.271484,293.238525L405.135254,293.269287L404.998535,293.29834L404.861328,293.325195L404.723877,293.350342L404.585938,293.373535L404.447998,293.394531L404.30957,293.413818L404.170898,293.431152L404.031982,293.446533L403.892822,293.459961L403.753418,293.47168L403.614014,293.481201L403.474609,293.48877L403.334961,293.494385L403.195313,293.498047L403,293.5L303,293.5L302.860352,293.499023L302.720459,293.496094L302.580811,293.491211L302.441162,293.484375L302.301758,293.475586L302.162354,293.464844L302.023193,293.452148L301.884277,293.4375L301.745605,293.420898L301.606934,293.402588L301.46875,293.38208L301.330811,293.359619L301.193115,293.335449L301.055908,293.309082L300.918945,293.281006L300.782471,293.250977L300.646484,293.218994L300.510986,293.185303L300.375732,293.149414L300.241211,293.111816L300.107178,293.07251L299.973633,293.031006L299.84082,292.987793L299.708496,292.942871L299.576904,292.895752L299.445801,292.847168L299.31543,292.796387L299.186035,292.744141L299.057129,292.689941L298.929199,292.633789L298.801758,292.576172L298.675537,292.516602L298.549805,292.455322L298.425049,292.39209L298.30127,292.327393L298.178467,292.260742L298.056396,292.192627L297.935547,292.122559L297.81543,292.051025L297.696533,291.977783L297.578613,291.902832L297.46167,291.826172L297.345703,291.748047L297.230957,291.668213L297.117432,291.58667L297.005127,291.503662L296.893799,291.419189L296.783691,291.333008L296.674805,291.245361L296.567139,291.15625L296.460938,291.065674L296.355713,290.973633L296.251953,290.879883L296.149414,290.784912L296.04834,290.688477L295.948486,290.590576L295.850098,290.491455L295.753174,290.390869L295.657471,290.288818L295.563477,290.185547L295.470703,290.081055L295.379395,289.975098L295.289795,289.86792L295.201416,289.759521L295.114746,289.650146L295.029541,289.539307L294.946045,289.427246L294.864014,289.314209L294.783447,289.199951L294.70459,289.084473L294.627441,288.968018L294.551758,288.850586L294.477783,288.731934L294.405518,288.612305L294.334961,288.491699L294.266113,288.370117L294.19873,288.247559L294.133301,288.124023L294.06958,287.999756L294.007568,287.874512L293.947266,287.748291L293.888916,287.621582L293.832031,287.493652L293.7771,287.365234L293.724121,287.23584L293.672852,287.105957L293.623291,286.975342L293.575684,286.843994L293.529785,286.711914L293.48584,286.579102L293.443848,286.446045L293.403564,286.312012L293.365234,286.177734L293.328613,286.042725L293.294189,285.907471L293.261475,285.771484L293.230713,285.635254L293.20166,285.498535L293.174805,285.361328L293.149658,285.223877L293.126465,285.085938L293.105469,284.947998L293.086182,284.80957L293.068848,284.670898L293.053467,284.531982L293.040039,284.392822L293.02832,284.253418L293.018799,284.114014L293.01123,283.974609L293.005615,283.834961L293.001953,283.695313L293,283.5L293,185.5L293.000977,185.360352L293.003906,185.220459L293.008789,185.080811L293.015625,184.941162L293.024414,184.801758L293.035156,184.662354L293.047852,184.523193L293.0625,184.384277L293.079102,184.245605L293.097412,184.106934L293.11792,183.96875L293.140381,183.830811L293.164551,183.693115L293.190918,183.555908L293.218994,183.418945L293.249023,183.282471L293.281006,183.146484L293.314697,183.010986L293.350586,182.875732L293.388184,182.741211L293.42749,182.607178L293.468994,182.473633L293.512207,182.34082L293.557129,182.208496L293.604248,182.076904L293.652832,181.945801L293.703613,181.81543L293.755859,181.686035L293.810059,181.557129L293.866211,181.429199L293.923828,181.301758L293.983398,181.175537L294.044678,181.049805L294.10791,180.925049L294.172607,180.80127L294.239258,180.678467L294.307373,180.556396L294.377441,180.435547L294.448975,180.31543L294.522217,180.196533L294.597168,180.078613L294.673828,179.96167L294.751953,179.845703L294.831787,179.730957L294.91333,179.617432L294.996338,179.505127L295.080811,179.393799L295.166992,179.283691L295.254639,179.174805L295.34375,179.067139L295.434326,178.960938L295.526367,178.855713L295.620117,178.751953L295.715088,178.649414L295.811523,178.54834L295.909424,178.448486L296.008545,178.350098L296.109131,178.253174L296.211182,178.157471L296.314453,178.063477L296.418945,177.970703L296.524902,177.879395L296.63208,177.789795L296.740479,177.701416L296.849854,177.614746L296.960693,177.529541L297.072754,177.446045L297.185791,177.364014L297.300049,177.283447L297.415527,177.20459L297.531982,177.127441L297.649414,177.051758L297.768066,176.977783L297.887695,176.905518L298.008301,176.834961L298.129883,176.766113L298.252441,176.69873L298.375977,176.633301L298.500244,176.56958L298.625488,176.507568L298.751709,176.447266L298.878418,176.388916L299.006348,176.332031L299.134766,176.2771L299.26416,176.224121L299.394043,176.172852L299.524658,176.123291L299.656006,176.075684L299.788086,176.029785L299.920898,175.98584L300.053955,175.943848L300.187988,175.903564L300.322266,175.865234L300.457275,175.828613L300.592529,175.794189L300.728516,175.761475L300.864746,175.730713L301.001465,175.70166L301.138672,175.674805L301.276123,175.649658L301.414063,175.626465L301.552002,175.605469L301.69043,175.586182L301.829102,175.568848L301.968018,175.553467L302.107178,175.540039L302.246582,175.52832L302.385986,175.518799L302.525391,175.51123L302.665039,175.505615L302.804688,175.501953L303,175.5L403,175.5L403.139648,175.500977z"/>
    <circle transform="translate(-119.645203,58.701996)" style="stroke:#000000;stroke-width:0.05mm;fill:none" r="2.25" cx="0" cy="0"/>
    <circle transform="translate(-229.645203,148.75)" style="stroke:#000000;stroke-width:0.05mm;fill:none" r="2.25" cx="0" cy="0"/>
    <circle transform="translate(-119.645203,148.75)" style="stroke:#000000;stroke-width:0.05mm;fill:none" r="2.25" cx="0" cy="0"/>
    <circle transform="translate(-229.645203,58.701996)" style="stroke:#000000;stroke-width:0.05mm;fill:none" r="2.25" cx="0" cy="0"/>
    <rect transform="translate(-174.645203,81.000023)" style="stroke:#000000;stroke-width:0.05mm;fill:none" x="-39" y="-28" width="78" height="56"/>
    <circle transform="translate(-137.608398,130.5)" style="stroke:#000000;stroke-width:0.05mm;fill:none" r="3.5" cx="0" cy="0"/>
    <circle transform="translate(-161.608398,130.5)" style="stroke:#000000;stroke-width:0.05mm;fill:none" r="3.5" cx="0" cy="0"/>
    <path transform="matrix(-1,0,0,1,0,0)" style="stroke:none;fill:#a0a000;fill-rule:evenodd" d="M165.387238,137.956284L164.733185,137.956284L166.04715,141.436264L167.379181,137.956284L166.713165,137.956284L166.713165,137.872299L168.567169,137.872299L168.567169,137.956284L168.02713,137.956284L166.39505,142.23436L166.245148,142.23436L164.631134,137.956284L164.091095,137.956284L164.091095,137.872299L165.387238,137.872299L165.387238,137.956284z"/>
    <path transform="matrix(-1,0,0,1,0,0)" style="stroke:none;fill:#a0a000;fill-rule:evenodd" d="M161.9617,137.774887C162.563416,137.873459,163.098389,138.212006,163.448822,138.710953C163.799255,139.2099,163.936188,139.828018,163.824738,140.427475C163.665649,141.444504,162.804611,142.203781,161.775665,142.23436C160.907745,142.196106,160.148254,141.64003,159.84964,140.824203C159.403809,139.707245,159.911667,138.437012,161.004669,137.935287C161.303085,137.795593,161.634048,137.740128,161.9617,137.774887zM161.566925,137.859604C161.103943,137.908798,160.712906,138.225357,160.56839,138.667953C160.422943,139.097107,160.358307,139.549469,160.377716,140.002182C160.348328,140.503571,160.428162,141.005585,160.611603,141.473129C160.81813,141.921402,161.28389,142.192383,161.775665,142.150375C162.400925,142.196167,162.958908,141.755753,163.059601,141.136948C163.221359,140.377396,163.215027,139.592041,163.041046,138.83519C162.944519,138.386581,162.61174,138.025742,162.172394,137.893295C161.973892,137.848099,161.769211,137.836716,161.566925,137.859604z"/>
    <path transform="matrix(-1,0,0,1,0,0)" style="stroke:none;fill:#a0a000;fill-rule:evenodd" d="M159.100372,137.956284L158.434357,137.956284L158.434357,142.060287L159.100372,142.060287L159.100372,142.144272L155.434357,142.144272L155.434357,140.830307L155.500519,140.830307L155.57962,141.100327C155.671753,141.405411,155.854156,141.6754,156.102814,141.874741C156.300339,142.001968,156.531525,142.066605,156.766388,142.060287L157.834503,142.060287L157.834503,137.956284L157.168488,137.956284L157.168488,137.872299L159.100372,137.872299L159.100372,137.956284z"/>
    <path transform="matrix(-1,0,0,1,0,0)" style="stroke:none;fill:#a0a000;fill-rule:evenodd" d="M146.591324,137.770248C147.007629,137.788391,147.38623,138.017212,147.595306,138.377686C147.804382,138.738144,147.815002,139.180389,147.624039,139.550766C147.40799,139.814774,147.111755,140.000641,146.780045,140.080307L146.090103,140.290268C145.720871,140.358658,145.419022,140.625381,145.305679,140.983383C145.194717,141.46138,145.468445,141.945129,145.935318,142.096176C146.337051,142.205017,146.76416,142.166763,147.140152,141.988266C147.4319,141.79068,147.641571,141.493835,147.73024,141.152817L147.806168,140.854233L147.872086,140.854233L147.872086,142.144272L147.781998,142.144272L147.755875,142.090317C147.697205,142.004639,147.583313,141.976166,147.491226,142.024155C147.361588,142.062836,147.232803,142.102783,147.104019,142.144272L147.006607,142.170395C146.530121,142.292938,146.02681,142.251953,145.576431,142.05394C144.977203,141.751816,144.686264,141.059341,144.889908,140.419907C145.018677,140.132751,145.262756,139.913498,145.562027,139.816147C145.898178,139.702362,146.236343,139.59433,146.576187,139.492172L146.731461,139.440414C146.990189,139.378204,147.215866,139.219635,147.362076,138.997299C147.508942,138.710831,147.455383,138.362427,147.229263,138.133286C146.833252,137.783798,146.251053,137.749191,145.816422,138.049301C145.541504,138.2789,145.363052,138.603134,145.316177,138.958237L145.244156,138.958237L145.244156,137.872299L145.32814,137.872299L145.370865,137.940414L145.403091,137.97728C145.491241,138.010498,145.589233,138.005005,145.673111,137.962143L145.856216,137.881332C146.087784,137.782288,146.340836,137.744049,146.591324,137.770248z"/>
    <path transform="matrix(-1,0,0,1,0,0)" style="stroke:none;fill:#a0a000;fill-rule:evenodd" d="M129.38649,137.77562C130.598389,137.948029,131.446381,139.062332,131.289566,140.276352C131.190384,141.219452,130.50032,141.993423,129.574722,142.199692C129.139923,142.268356,128.694656,142.217041,128.28688,142.051254L128.185806,142.026596C128.053802,141.987564,127.910973,142.034515,127.827896,142.144272L127.738052,142.144272L127.738052,140.866196L127.80397,140.866196L127.868423,141.094955C127.924171,141.37001,128.05687,141.623718,128.250992,141.826401C128.514954,142.060059,128.862366,142.176956,129.213882,142.150375C129.789398,142.200165,130.316818,141.821655,130.453873,141.260483C130.662994,140.461166,130.67012,139.623062,130.474625,138.820297C130.381866,138.387115,130.063004,138.036896,129.640396,137.904037C129.193542,137.761597,128.704971,137.853241,128.340103,138.147934C128.101898,138.40506,127.944725,138.726379,127.887955,139.07225L127.822037,139.07225L127.822037,137.872299L127.91188,137.872299L127.956314,137.917953C128.072189,138.009171,128.229279,138.026291,128.362076,137.962143L128.572037,137.881332C128.829651,137.775772,129.110458,137.739319,129.38649,137.77562z"/>
    <path transform="matrix(-1,0,0,1,0,0)" style="stroke:none;fill:#a0a000;fill-rule:evenodd" d="M144.140884,137.956284L143.474869,137.956284L143.474869,142.060287L144.140884,142.060287L144.140884,142.144272L140.480972,142.144272L140.480972,140.830307L140.54689,140.830307L140.57692,140.986313C140.647766,141.415604,140.919708,141.78537,141.308365,141.980942C141.445801,142.035843,141.592758,142.06282,141.740738,142.060287L142.874771,142.060287L142.874771,139.894272C142.647476,139.878754,142.41922,139.885056,142.19313,139.913071C141.936615,139.984802,141.743744,140.196228,141.695816,140.458237C141.664978,140.569748,141.636017,140.681702,141.608902,140.794174L141.54274,140.794174L141.54274,138.928207L141.608902,138.928207L141.675552,139.173569C141.713974,139.394684,141.837936,139.591904,142.020523,139.722397C142.166428,139.787399,142.325317,139.817474,142.484879,139.810287L142.874771,139.810287L142.874771,137.956284L141.878922,137.956284C141.483322,137.919144,141.107056,138.137421,140.942886,138.499252C140.876923,138.631927,140.820786,138.769257,140.774918,138.910141L140.708755,138.910141L140.708755,137.872299L144.140884,137.872299L144.140884,137.956284z"/>
    <path transform="matrix(-1,0,0,1,0,0)" style="stroke:none;fill:#a0a000;fill-rule:evenodd" d="M139.917496,137.956284L139.25148,137.956284L139.25148,142.060287L139.917496,142.060287L139.917496,142.144272L136.25148,142.144272L136.25148,140.830307L136.317398,140.830307L136.3965,141.100327C136.488632,141.405411,136.671036,141.6754,136.919693,141.874741C137.11731,142.001953,137.348572,142.066589,137.583511,142.060287L138.651382,142.060287L138.651382,137.956284L137.985367,137.956284L137.985367,137.872299L139.917496,137.872299L139.917496,137.956284z"/>
    <path transform="matrix(-1,0,0,1,0,0)" style="stroke:none;fill:#a0a000;fill-rule:evenodd" d="M135.807388,137.956284L135.141373,137.956284L135.141373,142.060287L135.807388,142.060287L135.807388,142.144272L132.147476,142.144272L132.147476,140.830307L132.213394,140.830307L132.243423,140.986313C132.31427,141.415604,132.586197,141.78537,132.974869,141.980942C133.112381,142.035858,133.25943,142.062836,133.407486,142.060287L134.541519,142.060287L134.541519,139.894272C134.314148,139.878754,134.085815,139.88504,133.859634,139.913071C133.603165,139.984848,133.410309,140.196274,133.36232,140.458237C133.331482,140.569748,133.302521,140.681702,133.275406,140.794174L133.209488,140.794174L133.209488,138.928207L133.275406,138.928207L133.342056,139.173569C133.380417,139.394775,133.504501,139.592026,133.687271,139.722397C133.833084,139.787384,133.991898,139.817459,134.151382,139.810287L134.541519,139.810287L134.541519,137.956284L133.545425,137.956284C133.149841,137.919189,132.77359,138.137451,132.60939,138.499252C132.543427,138.631927,132.487289,138.769257,132.441422,138.910141L132.375504,138.910141L132.375504,137.872299L135.807388,137.872299L135.807388,137.956284z"/>
    <path transform="matrix(-1,0,0,1,0,0)" style="stroke:none;fill:#a0a000;fill-rule:evenodd" d="M127.204849,138.9702L127.138687,138.9702L127.08522,138.797104C126.996025,138.457306,126.764297,138.172989,126.449478,138.017075C126.198807,137.95163,125.938522,137.931046,125.680679,137.956284L125.680679,142.060287L126.346695,142.060287L126.346695,142.144272L124.41481,142.144272L124.41481,142.060287L125.080826,142.060287L125.080826,137.956284C124.822983,137.931046,124.562698,137.95163,124.312027,138.017075C123.997177,138.172958,123.76545,138.457291,123.676285,138.797104L123.622818,138.9702L123.556656,138.9702L123.556656,137.872299L127.204849,137.872299L127.204849,138.9702z"/>
    <path transform="matrix(-1,0,0,1,0,0)" style="stroke:none;fill:#a0a000;fill-rule:evenodd" d="M879.711548,60.794075L879.105591,60.794075L880.239624,62.906136L881.439575,60.794075L880.839478,60.794075L880.839478,60.710091L882.675659,60.710091L882.675659,60.794075L882.129517,60.794075L880.779419,63.176155L880.779419,64.898079L881.445435,64.898079L881.445435,64.982063L879.51355,64.982063L879.51355,64.898079L880.179565,64.898079L880.179565,62.984016L879.009644,60.794075L878.427612,60.794075L878.427612,60.710091L879.711548,60.710091L879.711548,60.794075z"/>
    <path transform="matrix(-1,0,0,1,0,0)" style="stroke:none;fill:#a0a000;fill-rule:evenodd" d="M886.706909,60.794075L886.040894,60.794075L886.040894,64.898079L886.706909,64.898079L886.706909,64.982063L883.046997,64.982063L883.046997,63.668098L883.112915,63.668098L883.142944,63.824104C883.213806,64.25338,883.485718,64.623154,883.87439,64.818733C884.011902,64.873596,884.158936,64.900558,884.307007,64.898079L885.44104,64.898079L885.44104,62.732063C885.213684,62.716541,884.985352,62.722839,884.759155,62.750862C884.502747,62.822693,884.309998,63.034103,884.262085,63.296028C884.231018,63.407486,884.201965,63.519459,884.174927,63.631966L884.109009,63.631966L884.109009,61.765999L884.174927,61.765999L884.241821,62.01136C884.280151,62.232513,884.404114,62.429741,884.586792,62.560188C884.732605,62.625183,884.891418,62.655258,885.050903,62.648079L885.44104,62.648079L885.44104,60.794075L884.444946,60.794075C884.049377,60.756981,883.673096,60.975243,883.508911,61.337044C883.442932,61.469719,883.386841,61.607044,883.340942,61.747932L883.275024,61.747932L883.275024,60.710091L886.706909,60.710091L886.706909,60.794075z"/>
    <path transform="matrix(-1,0,0,1,0,0)" style="stroke:none;fill:#a0a000;fill-rule:evenodd" d="M888.63855,60.794075L888.014526,60.794075L889.826538,62.702034L889.886597,62.702034L889.886597,60.794075L889.268677,60.794075L889.268677,60.710091L891.15271,60.710091L891.15271,60.794075L890.486694,60.794075L890.486694,64.898079L891.15271,64.898079L891.15271,64.982063L889.268677,64.982063L889.268677,64.898079L889.886597,64.898079L889.886597,62.786018L889.838501,62.786018L888.038696,64.898079L888.578491,64.898079L888.578491,64.982063L886.844604,64.982063L886.844604,64.898079L887.240601,64.898079L889.418579,62.408089L887.894653,60.794075L887.396606,60.794075L887.396606,60.710091L888.63855,60.710091L888.63855,60.794075z"/>
    <path transform="matrix(-1,0,0,1,0,0)" style="stroke:none;fill:#a0a000;fill-rule:evenodd" d="M888.739868,53.030159C889.525391,53.161003,890.185181,53.693062,890.480164,54.432777C890.775208,55.172497,890.662659,56.012554,890.182739,56.648079C889.589233,57.499367,888.433777,57.739006,887.550659,57.193977C886.526001,56.55806,886.170776,55.23613,886.738647,54.172249C887.117493,53.42564,887.904358,52.976589,888.739868,53.030159zM888.345337,53.114876C888.056763,53.138573,887.78894,53.274872,887.599976,53.49427C887.381042,53.771355,887.245728,54.10511,887.209839,54.456429C887.097412,55.160576,887.136292,55.880535,887.323853,56.568489C887.48407,57.102894,887.997925,57.452637,888.553833,57.405647C889.179138,57.451344,889.737122,57.011002,889.838013,56.39222C889.999756,55.63266,889.993347,54.847282,889.819214,54.090462C889.722778,53.641899,889.390076,53.281067,888.950806,53.148567C888.752319,53.103386,888.547607,53.091995,888.345337,53.114876z"/>
    <path transform="matrix(-1,0,0,1,0,0)" style="stroke:none;fill:#a0a000;fill-rule:evenodd" d="M879.996704,53.02552C880.413025,53.043709,880.791565,53.272522,881.000671,53.632973C881.209717,53.993423,881.220337,54.435654,881.029419,54.806038C880.813354,55.070049,880.517151,55.255909,880.185425,55.335579L879.495483,55.54554C879.126221,55.613926,878.824402,55.880642,878.71106,56.238655C878.600098,56.716572,878.873718,57.200268,879.340454,57.351448C879.742249,57.460327,880.169434,57.422073,880.545532,57.243538C880.83728,57.045952,881.046936,56.749107,881.13562,56.408089L881.211548,56.109505L881.277466,56.109505L881.277466,57.399544L881.187378,57.399544L881.161255,57.345589C881.102539,57.259853,880.988525,57.23138,880.896362,57.279427C880.766663,57.318199,880.638306,57.358047,880.509399,57.399544L880.411987,57.425911C879.935486,57.548172,879.43219,57.507107,878.981812,57.309212C878.382446,57.00724,878.091431,56.314617,878.295288,55.675179C878.42395,55.387989,878.668091,55.168774,878.967407,55.071663C879.303467,54.957535,879.641602,54.849434,879.981567,54.747444L880.136597,54.695686C880.395447,54.633541,880.621216,54.474964,880.767456,54.252571C880.914246,53.966099,880.860718,53.617718,880.634644,53.388557C880.238647,53.039108,879.656433,53.004501,879.221802,53.304573C878.946716,53.534019,878.76825,53.858349,878.721558,54.213509L878.649536,54.213509L878.649536,53.127571L878.733521,53.127571L878.776245,53.195686L878.808472,53.232552C878.896606,53.265705,878.994568,53.260303,879.078491,53.217659L879.261353,53.136604C879.493042,53.037628,879.746155,52.999393,879.996704,53.02552z"/>
    <path transform="matrix(-1,0,0,1,0,0)" style="stroke:none;fill:#a0a000;fill-rule:evenodd" d="M884.450806,53.115608C884.926392,53.13998,885.402832,53.14397,885.878784,53.127571L885.878784,53.211555L885.212769,53.211555L885.212769,57.315559L885.878784,57.315559L885.878784,57.399544L883.946655,57.399544L883.946655,57.315559L884.612671,57.315559L884.612671,55.149544C884.332703,55.132488,884.051758,55.137466,883.772583,55.164436C883.444092,55.222225,883.198303,55.496845,883.177124,55.82972C883.148987,56.058144,883.129517,56.287556,883.118774,56.517464L883.093872,56.731331C883.083496,56.956013,882.9776,57.165642,882.802856,57.307259C882.508789,57.470676,882.156799,57.491062,881.845825,57.362679C881.805603,57.34095,881.7677,57.315094,881.732788,57.28553L881.786743,57.219612L881.8573,57.276497C881.930786,57.333275,882.023438,57.360077,882.115723,57.349442C882.207947,57.338806,882.292053,57.291622,882.350708,57.219612C882.444397,57.056976,882.494995,56.873104,882.497681,56.685432L882.526245,56.213753C882.515747,55.96722,882.586609,55.723927,882.727905,55.521614C882.992371,55.265572,883.339294,55.112396,883.706665,55.089485L883.706665,55.077522L883.541382,55.051399C883.097595,55.000641,882.73938,54.665615,882.659058,54.226204C882.620667,53.741779,882.935608,53.299419,883.405884,53.177132C883.75,53.111172,884.101318,53.090488,884.450806,53.115608zM884.047974,53.201057C883.845642,53.205807,883.652954,53.290703,883.515076,53.438766C883.377197,53.586834,883.306152,53.785061,883.315796,53.98719C883.285767,54.24802,883.325195,54.512115,883.430054,54.752815C883.562256,54.970242,883.807556,55.091892,884.060669,55.065559L884.612671,55.065559L884.612671,53.211555C884.425171,53.190689,884.236145,53.187176,884.047974,53.201057z"/>
    <path transform="matrix(-1,0,0,1,0,0)" style="stroke:none;fill:#a0a000;fill-rule:evenodd" d="M893.641968,56.355598L893.653931,56.355598L894.764038,53.127571L896.113892,53.127571L896.113892,53.211555L895.447876,53.211555L895.447876,57.315559L896.113892,57.315559L896.113892,57.399544L894.692017,57.399544L894.692017,57.315559L895.358032,57.315559L895.358032,53.289436L895.345825,53.289436L893.917847,57.405647L892.484009,53.247444L892.472046,53.247444L892.472046,57.315559L893.138062,57.315559L893.138062,57.399544L891.205933,57.399544L891.205933,57.315559L891.871948,57.315559L891.871948,53.211555L891.205933,53.211555L891.205933,53.127571L892.53186,53.127571L893.641968,56.355598z"/>
    <path transform="matrix(-1,0,0,1,0,0)" style="stroke:none;fill:#a0a000;fill-rule:evenodd" d="M877.546265,53.211555L876.880249,53.211555L876.880249,57.315559L877.546265,57.315559L877.546265,57.399544L873.886108,57.399544L873.886108,56.085579L873.952271,56.085579L873.9823,56.241585C874.053101,56.670883,874.325073,57.040665,874.713745,57.236214C874.851196,57.291119,874.998169,57.318085,875.146118,57.315559L876.280151,57.315559L876.280151,55.149544C876.052856,55.134033,875.824585,55.140327,875.598511,55.168343C875.34198,55.240067,875.149109,55.451504,875.101196,55.713509C875.070374,55.825016,875.041382,55.93697,875.014282,56.049446L874.94812,56.049446L874.94812,54.183479L875.014282,54.183479L875.080933,54.428841C875.119446,54.649998,875.243347,54.84726,875.425903,54.977913C875.571838,55.042709,875.730713,55.072697,875.890259,55.065559L876.280151,55.065559L876.280151,53.211555L875.284302,53.211555C874.888672,53.174393,874.51239,53.39267,874.348267,53.754524C874.281982,53.887131,874.22583,54.024567,874.180298,54.165657L874.114136,54.165657L874.114136,53.127571L877.546265,53.127571L877.546265,53.211555z"/>
    <path transform="matrix(-1,0,0,1,0,0)" style="stroke:none;fill:#a0a000;fill-rule:evenodd" d="M866.481995,60.60804C866.898315,60.626179,867.276978,60.85495,867.486084,61.215408C867.69519,61.575867,867.705872,62.018131,867.514954,62.388557C867.298889,62.652534,867.002625,62.83839,866.670959,62.918098L865.981018,63.128059C865.611877,63.196552,865.309998,63.463085,865.19635,63.82093C865.085388,64.298973,865.35907,64.782822,865.825989,64.933968C866.227722,65.042824,866.654846,65.00457,867.030823,64.826057C867.322571,64.628418,867.532288,64.331612,867.621155,63.990608L867.696838,63.692024L867.763,63.692024L867.763,64.982063L867.672913,64.982063L867.646545,64.928108C867.587952,64.8423,867.473938,64.813797,867.381897,64.861946C867.252197,64.900726,867.12384,64.940567,866.994934,64.982063L866.897522,65.008186C866.420959,65.130745,865.917542,65.08976,865.467102,64.891731C864.86792,64.589615,864.577026,63.897072,864.780823,63.257698C864.909424,62.970413,865.153564,62.751099,865.452942,62.653938C865.789063,62.540161,866.127014,62.432182,866.466858,62.329964L866.622131,62.278206C866.88092,62.215916,867.106628,62.057373,867.252991,61.835091C867.399719,61.548615,867.346191,61.200249,867.120178,60.971077C866.72406,60.621597,866.141785,60.58699,865.707092,60.887093C865.432251,61.116745,865.253845,61.440971,865.206848,61.796028L865.134827,61.796028L865.134827,60.710091L865.218811,60.710091L865.26178,60.778206L865.294006,60.815071C865.382141,60.848305,865.480164,60.842812,865.564026,60.799934L865.746887,60.719124C865.978455,60.620121,866.231506,60.581882,866.481995,60.60804z"/>
    <path transform="matrix(-1,0,0,1,0,0)" style="stroke:none;fill:#a0a000;fill-rule:evenodd" d="M854.270325,60.698128C854.745911,60.7225,855.222351,60.72649,855.698303,60.710091L855.698303,60.794075L855.032288,60.794075L855.032288,64.898079L855.698303,64.898079L855.698303,64.982063L853.766174,64.982063L853.766174,64.898079L854.43219,64.898079L854.43219,62.732063C854.152283,62.71497,853.87146,62.719952,853.592346,62.746956C853.263733,62.804611,853.017822,63.079273,852.996643,63.412239C852.968506,63.640663,852.949036,63.870079,852.938293,64.099983L852.913391,64.31385C852.903015,64.538536,852.797119,64.748161,852.622375,64.889778C852.32843,65.05323,851.97644,65.073616,851.665588,64.945198C851.625183,64.923576,851.587219,64.897713,851.552307,64.86805L851.606262,64.802132L851.676819,64.859016C851.750366,64.915726,851.842957,64.942436,851.935181,64.931801C852.027405,64.921173,852.111511,64.874077,852.170227,64.802132C852.263916,64.639496,852.314514,64.45562,852.3172,64.267952L852.345764,63.796272C852.335266,63.54974,852.406128,63.306446,852.547424,63.104134C852.811829,62.848064,853.158813,62.694885,853.526184,62.672005L853.526184,62.660042L853.360901,62.633919C852.917114,62.58316,852.558899,62.248135,852.478577,61.808723C852.440186,61.324291,852.755066,60.881924,853.225403,60.759651C853.569519,60.693691,853.920837,60.673008,854.270325,60.698128zM853.867493,60.783577L853.70929,60.806038C853.403442,60.868484,853.175537,61.125736,853.150452,61.436897C853.09436,61.739574,853.128845,62.052162,853.249573,62.335335C853.381775,62.552761,853.627075,62.674412,853.880188,62.648079L854.43219,62.648079L854.43219,60.794075C854.24469,60.772915,854.055664,60.769402,853.867493,60.783577z"/>
    <path transform="matrix(-1,0,0,1,0,0)" style="stroke:none;fill:#a0a000;fill-rule:evenodd" d="M862.567688,60.698128C863.055359,60.720078,863.543579,60.724068,864.031555,60.710091L864.031555,60.794075L863.365784,60.794075L863.365784,64.898079L864.031555,64.898079L864.031555,64.982063L862.09967,64.982063L862.09967,64.898079L862.765686,64.898079L862.765686,62.918098L862.656067,62.935188C862.093933,63.031593,861.516663,62.908035,861.043274,62.589973C860.650696,62.312637,860.531555,61.782845,860.767639,61.364143C860.956848,61.06361,861.258057,60.850868,861.604553,60.773079C861.920044,60.699741,862.24469,60.67448,862.567688,60.698128zM862.149963,60.787971L861.922668,60.824104C861.665283,60.872799,861.4599,61.067669,861.397766,61.322151C861.315674,61.640816,861.316406,61.975052,861.399963,62.293343C861.518433,62.671669,861.884705,62.916733,862.279602,62.881966C862.442749,62.880829,862.605469,62.864811,862.765686,62.834114L862.765686,60.794075C862.561096,60.772114,862.354919,60.770069,862.149963,60.787971z"/>
    <path transform="matrix(-1,0,0,1,0,0)" style="stroke:none;fill:#a0a000;fill-rule:evenodd" d="M857.629944,60.794075L857.00592,60.794075L858.817932,62.702034L858.877747,62.702034L858.877747,60.794075L858.259827,60.794075L858.259827,60.710091L860.14386,60.710091L860.14386,60.794075L859.477844,60.794075L859.477844,64.898079L860.14386,64.898079L860.14386,64.982063L858.259827,64.982063L858.259827,64.898079L858.877747,64.898079L858.877747,62.786018L858.829895,62.786018L857.029846,64.898079L857.569885,64.898079L857.569885,64.982063L855.835754,64.982063L855.835754,64.898079L856.23175,64.898079L858.409729,62.408089L856.885803,60.794075L856.387756,60.794075L856.387756,60.710091L857.629944,60.710091L857.629944,60.794075z"/>
    <path transform="matrix(-1,0,0,1,0,0)" style="stroke:none;fill:#a0a000;fill-rule:evenodd" d="M866.140198,53.211555L865.474182,53.211555L865.474182,57.315559L866.140198,57.315559L866.140198,57.399544L862.480042,57.399544L862.480042,56.085579L862.546204,56.085579L862.575989,56.241585C862.647034,56.67078,862.918945,57.040466,863.307434,57.236214C863.444946,57.291096,863.59198,57.318062,863.740051,57.315559L864.874084,57.315559L864.874084,55.149544C864.64679,55.134003,864.418518,55.140301,864.192444,55.168343C863.935913,55.240067,863.743042,55.451504,863.695129,55.713509C863.664307,55.825012,863.635315,55.936974,863.608215,56.049446L863.542053,56.049446L863.542053,54.183479L863.608215,54.183479L863.674866,54.428841C863.713318,54.650017,863.83728,54.847286,864.019836,54.977913C864.165771,55.042709,864.324646,55.072697,864.484192,55.065559L864.874084,55.065559L864.874084,53.211555L863.877991,53.211555C863.482483,53.174484,863.106323,53.392746,862.9422,53.754524C862.875977,53.887184,862.819702,54.024612,862.773987,54.165657L862.708069,54.165657L862.708069,53.127571L866.140198,53.127571L866.140198,53.211555z"/>
    <path transform="matrix(-1,0,0,1,0,0)" style="stroke:none;fill:#a0a000;fill-rule:evenodd" d="M859.37262,53.211555L858.796692,53.211555L859.756653,54.789436L860.716614,53.211555L860.140686,53.211555L860.140686,53.127571L861.928772,53.127571L861.928772,53.211555L861.430725,53.211555L860.152649,55.311653L861.3526,57.315559L861.928772,57.315559L861.928772,57.399544L860.674622,57.399544L860.674622,57.315559L861.250549,57.315559L860.104553,55.395638L858.934631,57.315559L859.510559,57.315559L859.510559,57.399544L857.710754,57.399544L857.710754,57.315559L858.208557,57.315559L859.702698,54.873665L858.700745,53.211555L858.124573,53.211555L858.124573,53.127571L859.37262,53.127571L859.37262,53.211555z"/>
    <path transform="matrix(-1,0,0,1,0,0)" style="stroke:none;fill:#a0a000;fill-rule:evenodd" d="M857.315247,54.225471L857.249329,54.225471L857.195862,54.052376C857.106445,53.712608,856.874695,53.428349,856.559875,53.272346C856.309265,53.206917,856.049072,53.186337,855.791321,53.211555L855.791321,57.315559L856.457336,57.315559L856.457336,57.399544L854.525208,57.399544L854.525208,57.315559L855.191223,57.315559L855.191223,53.211555C854.933411,53.186333,854.673096,53.206913,854.422424,53.272346C854.107666,53.428299,853.875916,53.712601,853.786682,54.052376L853.733215,54.225471L853.667297,54.225471L853.667297,53.127571L857.315247,53.127571L857.315247,54.225471z"/>
    <path transform="matrix(-1,0,0,1,0,0)" style="stroke:none;fill:#a0a000;fill-rule:evenodd" d="M830.480225,58.700813L829.988281,58.700813L830.792236,60.584846L831.566162,58.700813L831.074219,58.700813L831.074219,58.616829L832.526123,58.616829L832.526123,58.700813L832.118164,58.700813L831.026123,61.388802L829.89209,58.700813L829.568115,58.700813L829.568115,58.616829L830.480225,58.616829L830.480225,58.700813z"/>
    <path transform="matrix(-1,0,0,1,0,0)" style="stroke:none;fill:#a0a000;fill-rule:evenodd" d="M840.5,59.696907L841.879883,59.696907L841.879883,59.804817L840.5,59.804817L840.5,61.190804L840.379883,61.190804L840.379883,59.804817L839,59.804817L839,59.696907L840.379883,59.696907L840.379883,58.310677L840.5,58.310677L840.5,59.696907z"/>
    <path transform="matrix(-1,0,0,1,0,0)" style="stroke:none;fill:#a0a000;fill-rule:evenodd" d="M837.14917,57.095833L837.464111,57.320686C837.7005,57.468704,837.940552,57.610767,838.184082,57.746712L838.13623,57.824837C837.867737,57.680798,837.603577,57.528694,837.344238,57.368782L837.248291,57.302864L837.248291,61.106819L837.914063,61.106819L837.914063,61.190804L836.066162,61.190804L836.066162,61.106819L836.732178,61.106819L836.732178,56.828743L836.852295,56.828743L837.14917,57.095833z"/>
    <path transform="matrix(-1,0,0,1,0,0)" style="stroke:none;fill:#a0a000;fill-rule:evenodd" d="M834.360596,56.846809C834.703369,56.883904,835.012085,57.072067,835.202148,57.359749C835.312317,57.507557,835.327637,57.706066,835.241455,57.869026C835.153625,57.963493,835.019653,57.999584,834.89624,57.962044C834.806091,57.943913,834.742371,57.862778,834.746094,57.770882C834.749573,57.679165,834.772888,57.589294,834.814453,57.507454L834.824219,57.422737C834.817688,57.182438,834.638977,56.981392,834.401123,56.946663C834.145325,56.863308,833.864624,56.908524,833.647949,57.068001C833.473877,57.253368,833.375305,57.497093,833.371582,57.75135C833.312134,58.469612,833.548584,59.181049,834.026123,59.720833C834.459106,60.229259,834.941467,60.693535,835.466064,61.106819L835.466064,61.190804L832.724121,61.190804L832.724121,60.104866L832.790283,60.104866L832.815674,60.246712C832.869568,60.567974,833.16925,60.789494,833.492188,60.746712L834.866211,60.746712L834.566895,60.473763C834.094727,60.057343,833.648865,59.611969,833.231934,59.140266C832.902222,58.771152,832.750183,58.276337,832.815674,57.785774C832.921326,57.238857,833.397339,56.841438,833.954346,56.835091C834.089783,56.823608,834.226074,56.827541,834.360596,56.846809z"/>
    <path transform="matrix(-1,0,0,1,0,0)" style="stroke:none;fill:#a0a000;fill-rule:evenodd" d="M820.055908,60.612679L820.241943,60.644905C821.399353,60.947224,822.129211,62.087624,821.918945,63.265266C821.759888,64.282219,820.898987,65.041473,819.870117,65.072151C819.002136,65.033981,818.242615,64.477898,817.944092,63.661995C817.497925,62.545029,818.005859,61.27457,819.099121,60.773079C819.397461,60.633362,819.728333,60.577892,820.055908,60.612679zM819.661377,60.697395L819.473145,60.731087C819.033875,60.863586,818.701172,61.224415,818.604736,61.672981C818.409058,62.48914,818.421204,63.340771,818.640137,64.151009C818.800171,64.685524,819.314148,65.035263,819.870117,64.987923C820.4953,65.033752,821.053284,64.59346,821.154053,63.974739C821.315857,63.215179,821.309448,62.429802,821.135254,61.672981C821.038818,61.224419,820.706116,60.863586,820.266846,60.731087C820.068359,60.685905,819.863647,60.674515,819.661377,60.697395z"/>
    <path transform="matrix(-1,0,0,1,0,0)" style="stroke:none;fill:#a0a000;fill-rule:evenodd" d="M817.194824,60.794075L816.528809,60.794075L816.528809,64.898079L817.194824,64.898079L817.194824,64.982063L815.262695,64.982063L815.262695,64.898079L815.928711,64.898079L815.928711,62.822151C815.701416,62.806839,815.473206,62.813053,815.24707,62.840706C814.990601,62.912605,814.797729,63.124088,814.749756,63.386116C814.718933,63.497623,814.689941,63.609581,814.662842,63.722054L814.59668,63.722054L814.59668,61.856087L814.662842,61.856087L814.729492,62.101204C814.767822,62.322414,814.891785,62.51973,815.074463,62.650276C815.220337,62.715389,815.379272,62.745392,815.538818,62.737923L815.928711,62.737923L815.928711,60.794075L814.932861,60.794075C814.537231,60.756916,814.16095,60.975189,813.996826,61.337044C813.930603,61.469593,813.874451,61.606941,813.828857,61.747932L813.762695,61.747932L813.762695,60.710091L817.194824,60.710091L817.194824,60.794075z"/>
    <path transform="matrix(-1,0,0,1,0,0)" style="stroke:none;fill:#a0a000;fill-rule:evenodd" d="M813.193604,60.794075L812.527588,60.794075L812.527588,64.898079L813.193604,64.898079L813.193604,64.982063L811.261475,64.982063L811.261475,64.898079L811.92749,64.898079L811.92749,62.822151C811.700195,62.806812,811.471985,62.813026,811.24585,62.840706C810.98938,62.912605,810.796509,63.124088,810.748535,63.386116C810.717712,63.497601,810.688721,63.6096,810.661621,63.722054L810.595459,63.722054L810.595459,61.856087L810.661621,61.856087L810.728271,62.101204C810.766602,62.322414,810.890564,62.51973,811.073242,62.650276C811.219116,62.715408,811.378052,62.745407,811.537598,62.737923L811.92749,62.737923L811.92749,60.794075L810.931396,60.794075C810.535889,60.757004,810.159729,60.975266,809.995605,61.337044C809.929382,61.469589,809.87323,61.606945,809.827637,61.747932L809.761475,61.747932L809.761475,60.710091L813.193604,60.710091L813.193604,60.794075z"/>
    <path transform="matrix(-1,0,0,1,0,0)" style="stroke:none;fill:#a0a000;fill-rule:evenodd" d="M818.220459,53.030159C818.932922,53.147659,819.545593,53.598328,819.87323,54.241837C820.200806,54.885349,820.204773,55.645885,819.880615,56.291145C819.45636,57.232471,818.390686,57.702675,817.409424,57.381477C816.294495,56.943996,815.70166,55.725185,816.045898,54.578011C816.307434,53.686836,817.106567,53.06057,818.034424,53.019661L818.220459,53.030159zM817.825684,53.114876C817.423157,53.153698,817.07074,53.401108,816.897461,53.766487C816.740234,54.106514,816.655884,54.475651,816.649902,54.850227C816.591858,55.42754,816.644348,56.010796,816.804443,56.568489C816.9646,57.102947,817.478455,57.452713,818.034424,57.405647C818.659668,57.451408,819.217651,57.011002,819.318359,56.39222C819.480225,55.632664,819.473816,54.847275,819.299561,54.090462C819.203125,53.64188,818.870422,53.281044,818.431152,53.148567C818.232666,53.103378,818.027954,53.091988,817.825684,53.114876z"/>
    <path transform="matrix(-1,0,0,1,0,0)" style="stroke:none;fill:#a0a000;fill-rule:evenodd" d="M812.755127,53.211555L812.089111,53.211555L812.089111,56.397591L812.101074,56.397591L814.12915,53.127571L815.413086,53.127571L815.413086,53.211555L814.74707,53.211555L814.74707,57.315559L815.413086,57.315559L815.413086,57.399544L813.991211,57.399544L813.991211,57.315559L814.657227,57.315559L814.657227,53.457649L814.64502,53.457649L812.119141,57.483528L811.999023,57.483528L811.999023,53.211555L811.333252,53.211555L811.333252,53.127571L812.755127,53.127571L812.755127,53.211555z"/>
    <path transform="matrix(-1,0,0,1,0,0)" style="stroke:none;fill:#a0a000;fill-rule:evenodd" d="M828.970764,146.499176L827.389709,146.499176L827.389709,145.938141L828.970764,145.938141L828.970764,146.499176z"/>
    <path transform="matrix(-1,0,0,1,0,0)" style="stroke:none;fill:#a0a000;fill-rule:evenodd" d="M832.114319,146.499176L830.533508,146.499176L830.533508,145.938141L832.114319,145.938141L832.114319,146.499176z"/>
    <path transform="matrix(-1,0,0,1,0,0)" style="stroke:none;fill:#a0a000;fill-rule:evenodd" d="M839.983459,146.499176L838.402649,146.499176L838.402649,145.938141L839.983459,145.938141L839.983459,146.499176z"/>
    <path transform="matrix(-1,0,0,1,0,0)" style="stroke:none;fill:#a0a000;fill-rule:evenodd" d="M847.8526,146.499176L846.27179,146.499176L846.27179,145.938141L847.8526,145.938141L847.8526,146.499176z"/>
    <path transform="matrix(-1,0,0,1,0,0)" style="stroke:none;fill:#a0a000;fill-rule:evenodd" d="M862.81134,146.499176L861.230286,146.499176L861.230286,145.938141L862.81134,145.938141L862.81134,146.499176z"/>
    <path transform="matrix(-1,0,0,1,0,0)" style="stroke:none;fill:#a0a000;fill-rule:evenodd" d="M865.95636,146.499176L864.375305,146.499176L864.375305,145.938141L865.95636,145.938141L865.95636,146.499176z"/>
    <path transform="matrix(-1,0,0,1,0,0)" style="stroke:none;fill:#a0a000;fill-rule:evenodd" d="M876.971741,146.499176L875.39093,146.499176L875.39093,145.938141L876.971741,145.938141L876.971741,146.499176z"/>
    <path transform="matrix(-1,0,0,1,0,0)" style="stroke:none;fill:#a0a000;fill-rule:evenodd" d="M871.464172,146.499176L869.883118,146.499176L869.883118,145.938141L871.464172,145.938141L871.464172,146.499176z"/>
    <path transform="matrix(-1,0,0,1,0,0)" style="stroke:none;fill:#a0a000;fill-rule:evenodd" d="M825.517639,145.385406L825.600647,145.410065C825.800171,145.493088,825.913086,145.705872,825.869934,145.917633C825.846069,146.034988,825.776611,146.138077,825.676758,146.204163C825.576843,146.270233,825.454773,146.293869,825.337463,146.269928C825.220093,146.246048,825.117065,146.176559,825.050964,146.076706C824.984863,145.976837,824.961243,145.854797,824.985168,145.737457C825.009094,145.620163,825.078613,145.517151,825.178467,145.451126C825.27832,145.385101,825.40033,145.361496,825.517639,145.385406z"/>
    <path transform="matrix(-1,0,0,1,0,0)" style="stroke:none;fill:#a0a000;fill-rule:evenodd" d="M836.530334,145.385406L836.613586,145.410065C836.81311,145.493042,836.925964,145.705933,836.882629,145.917633C836.858826,146.034958,836.789368,146.138031,836.689575,146.204117C836.589722,146.270187,836.467712,146.293854,836.350403,146.269928C836.139771,146.227783,835.988647,146.042328,835.989807,145.827545C835.989075,145.707886,836.03656,145.593109,836.121216,145.508499C836.205811,145.423889,836.320618,145.376389,836.440247,145.377106L836.530334,145.385406z"/>
    <path transform="matrix(-1,0,0,1,0,0)" style="stroke:none;fill:#a0a000;fill-rule:evenodd" d="M844.399475,145.385406L844.482727,145.410065C844.682251,145.493042,844.795105,145.705933,844.75177,145.917633C844.727966,146.034958,844.658508,146.138031,844.558716,146.204117C844.458862,146.270203,844.336853,146.293869,844.219543,146.269928C844.008911,146.227798,843.857788,146.042328,843.858948,145.827545C843.858215,145.707886,843.905701,145.593109,843.990356,145.508499C844.074951,145.423889,844.189758,145.376389,844.309387,145.377106L844.399475,145.385406z"/>
    <path transform="matrix(-1,0,0,1,0,0)" style="stroke:none;fill:#a0a000;fill-rule:evenodd" d="M849.906067,145.385406L849.989075,145.410065C850.188599,145.493042,850.301453,145.705933,850.258118,145.917633C850.234314,146.034973,850.164856,146.138031,850.065063,146.204117C849.96521,146.270203,849.843201,146.293869,849.725891,146.269928C849.515259,146.227783,849.364075,146.042328,849.365295,145.827545C849.364563,145.70784,849.412109,145.593033,849.496765,145.508408C849.581421,145.423782,849.696289,145.376328,849.815979,145.377106L849.906067,145.385406z"/>
    <path transform="matrix(-1,0,0,1,0,0)" style="stroke:none;fill:#a0a000;fill-rule:evenodd" d="M854.631409,145.385406L854.714661,145.410065C854.914185,145.493057,855.026978,145.705933,854.983704,145.917633C854.9599,146.035004,854.890381,146.138092,854.790527,146.204178C854.690613,146.270264,854.568542,146.2939,854.451233,146.269928C854.333923,146.246033,854.230896,146.176514,854.164856,146.076645C854.098816,145.976776,854.075256,145.854752,854.099182,145.737457C854.123047,145.620178,854.192505,145.517181,854.292358,145.451157C854.392151,145.385132,854.51416,145.361496,854.631409,145.385406z"/>
    <path transform="matrix(-1,0,0,1,0,0)" style="stroke:none;fill:#a0a000;fill-rule:evenodd" d="M856.994202,145.385406L857.077209,145.410065C857.276794,145.492996,857.389648,145.705902,857.346252,145.917633C857.32251,146.035004,857.253113,146.138123,857.153259,146.204208C857.053406,146.270309,856.931335,146.29393,856.814026,146.269928C856.696655,146.246048,856.593628,146.176575,856.527527,146.076706C856.461487,145.976837,856.437805,145.854797,856.461731,145.737457C856.485657,145.620163,856.555176,145.517151,856.655029,145.451126C856.754883,145.385101,856.876892,145.361481,856.994202,145.385406z"/>
    <path transform="matrix(-1,0,0,1,0,0)" style="stroke:none;fill:#a0a000;fill-rule:evenodd" d="M859.356995,145.385406L859.440002,145.410065C859.639526,145.493042,859.75238,145.705933,859.709045,145.917633C859.685242,146.034973,859.615784,146.138031,859.515991,146.204117C859.416138,146.270203,859.294128,146.293869,859.176819,146.269928C858.966187,146.227798,858.815063,146.042328,858.816223,145.827545C858.815491,145.70784,858.863037,145.593033,858.947693,145.508408C859.032349,145.423798,859.147217,145.376312,859.266907,145.377106L859.356995,145.385406z"/>
    <path transform="matrix(-1,0,0,1,0,0)" style="stroke:none;fill:#a0a000;fill-rule:evenodd" d="M873.517395,145.385406C873.675415,145.417557,873.804321,145.531601,873.855469,145.68454C873.906616,145.837494,873.872253,146.006119,873.765381,146.126862C873.658447,146.24762,873.495239,146.302155,873.337219,146.269928C873.126587,146.22789,872.975464,146.042328,872.976868,145.827545C872.976074,145.707855,873.023499,145.593018,873.108154,145.508392C873.192749,145.423752,873.307617,145.376297,873.427307,145.377106L873.517395,145.385406z"/>
    <path transform="matrix(-1,0,0,1,0,0)" style="stroke:none;fill:#a0a000;fill-rule:evenodd" d="M889.966125,135.757233L888.385071,135.757233L888.385071,135.196198L889.966125,135.196198L889.966125,135.757233z"/>
    <path transform="matrix(-1,0,0,1,0,0)" style="stroke:none;fill:#a0a000;fill-rule:evenodd" d="M886.821106,135.757233L885.240295,135.757233L885.240295,135.196198L886.821106,135.196198L886.821106,135.757233z"/>
    <path transform="matrix(-1,0,0,1,0,0)" style="stroke:none;fill:#a0a000;fill-rule:evenodd" d="M874.225159,135.757233L872.644348,135.757233L872.644348,135.196198L874.225159,135.196198L874.225159,135.757233z"/>
    <path transform="matrix(-1,0,0,1,0,0)" style="stroke:none;fill:#a0a000;fill-rule:evenodd" d="M845.090149,135.757233L843.509094,135.757233L843.509094,135.196198L845.090149,135.196198L845.090149,135.757233z"/>
    <path transform="matrix(-1,0,0,1,0,0)" style="stroke:none;fill:#a0a000;fill-rule:evenodd" d="M834.858215,135.757233L833.277405,135.757233L833.277405,135.196198L834.858215,135.196198L834.858215,135.757233z"/>
    <path transform="matrix(-1,0,0,1,0,0)" style="stroke:none;fill:#a0a000;fill-rule:evenodd" d="M831.714661,135.757233L830.133606,135.757233L830.133606,135.196198L831.714661,135.196198L831.714661,135.757233z"/>
    <path transform="matrix(-1,0,0,1,0,0)" style="stroke:none;fill:#a0a000;fill-rule:evenodd" d="M828.570862,135.757233L826.990051,135.757233L826.990051,135.196198L828.570862,135.196198L828.570862,135.757233z"/>
    <path transform="matrix(-1,0,0,1,0,0)" style="stroke:none;fill:#a0a000;fill-rule:evenodd" d="M815.976379,135.757233L814.395325,135.757233L814.395325,135.196198L815.976379,135.196198L815.976379,135.757233z"/>
    <path transform="matrix(-1,0,0,1,0,0)" style="stroke:none;fill:#a0a000;fill-rule:evenodd" d="M810.160461,134.643463L810.243713,134.668121C810.443237,134.751099,810.556091,134.963989,810.512756,135.17569C810.488953,135.29306,810.419434,135.396149,810.31958,135.462234C810.219666,135.52832,810.097595,135.551956,809.980286,135.527985C809.863037,135.504105,809.76001,135.434631,809.69397,135.334808C809.627991,135.234985,809.604309,135.113022,809.628235,134.995758C809.670349,134.785233,809.855713,134.634079,810.070374,134.635162L810.160461,134.643463z"/>
    <path transform="matrix(-1,0,0,1,0,0)" style="stroke:none;fill:#a0a000;fill-rule:evenodd" d="M892.019348,134.643463C892.229675,134.686111,892.380493,134.87114,892.380493,135.085724C892.380493,135.300323,892.229675,135.485336,892.019348,135.527985C891.807678,135.570709,891.595215,135.458099,891.51178,135.258942C891.42926,135.059174,891.499756,134.82872,891.679993,134.709381C891.779907,134.643356,891.901978,134.619644,892.019348,134.643463z"/>
    <path transform="matrix(-1,0,0,1,0,0)" style="stroke:none;fill:#a0a000;fill-rule:evenodd" d="M820.392395,134.643463L820.475403,134.668121C820.674927,134.751144,820.787842,134.963928,820.74469,135.17569C820.720825,135.293045,820.651367,135.396133,820.551453,135.462204C820.451599,135.52829,820.329529,135.551926,820.212219,135.527985C820.09491,135.50412,819.991882,135.434677,819.925781,135.334869C819.859741,135.235046,819.83606,135.113052,819.859924,134.995758C819.9021,134.785172,820.087524,134.634018,820.302307,134.635162L820.392395,134.643463z"/>
    <path transform="matrix(-1,0,0,1,0,0)" style="stroke:none;fill:#a0a000;fill-rule:evenodd" d="M822.755188,134.643463L822.838196,134.668121C823.03772,134.751099,823.150574,134.963989,823.107239,135.17569C823.083435,135.29303,823.013977,135.396088,822.914185,135.462173C822.814331,135.528259,822.692322,135.551926,822.575012,135.527985C822.364441,135.485992,822.213318,135.300552,822.214661,135.085846C822.213745,134.96611,822.261169,134.851196,822.345825,134.766495C822.430481,134.681808,822.545349,134.634308,822.6651,134.635162L822.755188,134.643463z"/>
    <path transform="matrix(-1,0,0,1,0,0)" style="stroke:none;fill:#a0a000;fill-rule:evenodd" d="M839.274231,134.643463L839.357483,134.668121C839.557007,134.751099,839.669861,134.963989,839.626526,135.17569C839.602722,135.293015,839.533264,135.396088,839.433472,135.462173C839.333618,135.528244,839.211609,135.551926,839.094299,135.527985C838.97699,135.504181,838.873901,135.434738,838.8078,135.3349C838.74176,135.235077,838.718079,135.113068,838.742004,134.995758C838.784119,134.785248,838.969482,134.634079,839.184143,134.635162L839.274231,134.643463z"/>
    <path transform="matrix(-1,0,0,1,0,0)" style="stroke:none;fill:#a0a000;fill-rule:evenodd" d="M841.637024,134.643463L841.720276,134.668121C841.9198,134.751099,842.032654,134.963989,841.989319,135.17569C841.965515,135.29306,841.895996,135.396149,841.796143,135.462234C841.696228,135.52832,841.574158,135.551956,841.456848,135.527985C841.3396,135.504105,841.236572,135.434631,841.170532,135.334808C841.104553,135.234985,841.080872,135.113022,841.104797,134.995758C841.146912,134.785233,841.332275,134.634079,841.546936,134.635162L841.637024,134.643463z"/>
    <path transform="matrix(-1,0,0,1,0,0)" style="stroke:none;fill:#a0a000;fill-rule:evenodd" d="M847.143372,134.643463C847.2005,134.654083,847.254822,134.676529,847.302795,134.709381C847.510498,134.847229,847.567261,135.127228,847.429749,135.335114C847.309937,135.514801,847.080078,135.585159,846.880188,135.503326C846.680664,135.420349,846.56781,135.207458,846.611145,134.995758C846.634949,134.878433,846.704407,134.77536,846.804199,134.709274C846.904053,134.643204,847.026062,134.619537,847.143372,134.643463z"/>
    <path transform="matrix(-1,0,0,1,0,0)" style="stroke:none;fill:#a0a000;fill-rule:evenodd" d="M861.319885,134.643463C861.514221,134.683228,861.659607,134.845291,861.678711,135.042755C861.697754,135.240234,861.58606,135.427109,861.402893,135.503326C861.203125,135.585785,860.972717,135.515274,860.853333,135.335114C860.716125,135.127151,860.772888,134.847427,860.980286,134.709381C861.080322,134.643341,861.202454,134.619629,861.319885,134.643463z"/>
    <path transform="matrix(-1,0,0,1,0,0)" style="stroke:none;fill:#a0a000;fill-rule:evenodd" d="M863.682678,134.643463C863.877014,134.683304,864.022339,134.845337,864.041382,135.04277C864.060486,135.240204,863.948792,135.427063,863.765686,135.503326C863.565918,135.585876,863.335449,135.515335,863.216125,135.335114C863.078613,135.127213,863.135437,134.847244,863.343079,134.709381C863.443115,134.643326,863.565186,134.619614,863.682678,134.643463z"/>
    <path transform="matrix(-1,0,0,1,0,0)" style="stroke:none;fill:#a0a000;fill-rule:evenodd" d="M866.045227,134.643463C866.255554,134.686111,866.406372,134.871124,866.406372,135.085724C866.406372,135.300308,866.255554,135.485336,866.045227,135.527985C865.833557,135.570709,865.621094,135.458099,865.537659,135.258942C865.455139,135.059174,865.525635,134.828735,865.705872,134.709381C865.805786,134.643356,865.927856,134.619644,866.045227,134.643463z"/>
    <path transform="matrix(-1,0,0,1,0,0)" style="stroke:none;fill:#a0a000;fill-rule:evenodd" d="M868.40802,134.643463C868.618347,134.686111,868.769165,134.871124,868.769165,135.085724C868.769165,135.300308,868.618347,135.485336,868.40802,135.527985C868.19635,135.570709,867.983887,135.458099,867.900452,135.258942C867.817932,135.059174,867.888428,134.828735,868.068665,134.709381C868.168579,134.643356,868.290649,134.619644,868.40802,134.643463z"/>
    <path transform="matrix(-1,0,0,1,0,0)" style="stroke:none;fill:#a0a000;fill-rule:evenodd" d="M878.641174,134.643463C878.851501,134.686111,879.002319,134.871124,879.002319,135.085724C879.002319,135.300308,878.851501,135.485336,878.641174,135.527985C878.429504,135.570709,878.217041,135.458099,878.133606,135.258942C878.051086,135.059174,878.121582,134.828735,878.301819,134.709381C878.401733,134.643341,878.523804,134.619644,878.641174,134.643463z"/>
    <path transform="matrix(-1,0,0,1,0,0)" style="stroke:none;fill:#a0a000;fill-rule:evenodd" d="M881.003967,134.643463C881.214294,134.686111,881.365112,134.871124,881.365112,135.085724C881.365112,135.300308,881.214294,135.485336,881.003967,135.527985C880.792297,135.570709,880.579834,135.458099,880.496399,135.258942C880.413879,135.059174,880.484375,134.82872,880.664612,134.709381C880.764526,134.643311,880.886597,134.619598,881.003967,134.643463z"/>
    <path transform="matrix(-1,0,0,1,0,0)" style="stroke:none;fill:#a0a000;fill-rule:evenodd" d="M818.029602,134.643463L818.112854,134.668121C818.312378,134.751099,818.425232,134.963989,818.381897,135.17569C818.358093,135.29306,818.288574,135.396164,818.188721,135.462234C818.088806,135.52832,817.966736,135.551971,817.849426,135.527985C817.732178,135.50412,817.62915,135.434631,817.56311,135.334808C817.497131,135.235001,817.47345,135.113022,817.497375,134.995758C817.53949,134.785233,817.724854,134.634079,817.939514,134.635162L818.029602,134.643463z"/>
</svg>
